<svg width="56" height="57" viewBox="0 0 56 57" fill="none" xmlns="http://www.w3.org/2000/svg">
<path d="M26.7332 9.25788C37.1367 9.10623 45.6708 17.395 45.8224 27.7986C45.9741 38.2022 37.6853 46.7362 27.2817 46.8878C16.8781 47.0395 8.3441 38.7507 8.19244 28.3471C8.04079 17.9436 16.3296 9.40954 26.7332 9.25788ZM27.2494 44.6743C36.4356 44.5404 43.7428 37.017 43.6089 27.8309C43.475 18.6447 35.9516 11.3375 26.7654 11.4714C17.5793 11.6053 10.2721 19.1287 10.406 28.3149C10.5399 37.501 18.0633 44.8082 27.2494 44.6743Z" fill="#008B96"/>
<path d="M26.5188 17.3418L37.4109 27.9209L26.8318 38.813L25.2597 37.2862L34.3119 27.9661L24.9919 18.9139L26.5188 17.3418Z" fill="#008B96"/>
<path d="M35.876 29.0501L17.061 29.3244L17.0287 27.1108L35.8437 26.8366L35.876 29.0501Z" fill="#008B96"/>
</svg>
