<svg width="56" height="56" viewBox="0 0 56 56" fill="none" xmlns="http://www.w3.org/2000/svg">
<path d="M28.1482 46.7715C17.7441 46.8785 9.24575 38.5531 9.13877 28.149C9.0318 17.7449 17.3572 9.24652 27.7613 9.13955C38.1654 9.03257 46.6638 17.3579 46.7708 27.7621C46.8777 38.1662 38.5524 46.6645 28.1482 46.7715ZM27.7841 11.3532C18.5974 11.4476 11.258 18.9396 11.3524 28.1262C11.4469 37.3129 18.9388 44.6523 28.1255 44.5579C37.3121 44.4634 44.6516 36.9715 44.5571 27.7848C44.4626 18.5982 36.9707 11.2587 27.7841 11.3532Z" fill="#008B96"/>
<path d="M28.3984 38.6881L17.5518 28.0624L28.1776 17.2158L29.7431 18.7494L20.6509 28.0305L29.932 37.1227L28.3984 38.6881Z" fill="#008B96"/>
<path d="M19.0898 26.9395L37.9058 26.746L37.9286 28.9596L19.1126 29.1531L19.0898 26.9395Z" fill="#008B96"/>
</svg>
