<svg width="49" height="49" viewBox="0 0 49 49" fill="none" xmlns="http://www.w3.org/2000/svg">
<path fill-rule="evenodd" clip-rule="evenodd" d="M44.3491 2.67551H4.03174C3.28951 2.67551 2.68783 3.27445 2.68783 4.01326V44.1459C2.68783 44.8848 3.28952 45.4837 4.03174 45.4837H44.3491C45.0914 45.4837 45.693 44.8848 45.693 44.1459V4.01326C45.693 3.27444 45.0914 2.67551 44.3491 2.67551ZM4.03174 0C1.80508 0 0 1.79681 0 4.01326V44.1459C0 46.3624 1.80508 48.1592 4.03174 48.1592H44.3491C46.5758 48.1592 48.3809 46.3624 48.3809 44.1459V4.01326C48.3809 1.79681 46.5758 0 44.3491 0H4.03174Z" fill="#008B96"/>
<path fill-rule="evenodd" clip-rule="evenodd" d="M5.78097 30.0215C5.23847 31.4278 5.9671 33.0085 7.41611 33.4422C12.7422 35.0366 18.3698 35.8955 24.1896 35.8955C30.0093 35.8955 35.6372 35.0365 40.9631 33.4422C42.4123 33.0083 43.1408 31.4276 42.5984 30.0215L35.2249 10.909C34.7256 9.61487 33.3176 8.92539 31.9558 9.21649C29.4504 9.75199 26.8524 10.0341 24.1896 10.0341C21.5268 10.0341 18.929 9.75199 16.4234 9.21649C15.0618 8.92539 13.6537 9.61487 13.1545 10.9091L5.78097 30.0215ZM36.2851 21.1284C36.2851 24.055 33.8354 26.4276 30.8135 26.4276C30.5836 26.4276 30.3568 26.4139 30.1343 26.3871C29.9285 26.6631 29.7085 27.0383 29.4552 27.4703C28.3658 29.3282 26.6623 32.2332 22.8458 32.776C19.8661 33.2047 17.8067 30.706 16.4386 28.0459C16.2666 27.7113 16.0995 27.3888 15.9431 27.09C15.7136 27.1916 15.4679 27.3015 15.2241 27.4104C14.5966 27.6909 13.9821 27.9657 13.6895 28.0788C12.4423 28.5616 11.0272 27.9737 10.5287 26.7658C10.0303 25.558 10.6373 24.1876 11.8845 23.7048C12.0627 23.6359 12.4441 23.465 12.9444 23.241C13.2822 23.0898 13.674 22.9144 14.0944 22.7296C14.5698 22.5205 15.0657 22.3071 15.47 22.1491C15.6657 22.0727 15.8888 21.9898 16.0982 21.9268C16.197 21.8969 16.356 21.852 16.5393 21.8205C16.6302 21.805 16.7822 21.783 16.9678 21.7797C17.112 21.7773 17.5053 21.7785 17.9583 21.9571C18.3354 22.1056 18.5809 22.3104 18.6664 22.3837C18.7792 22.4806 18.8614 22.5689 18.9084 22.6216C19.0029 22.7275 19.0733 22.8241 19.111 22.8772C19.1919 22.9912 19.2658 23.1101 19.3222 23.2037C19.4412 23.401 19.5819 23.6522 19.7288 23.9219C19.9062 24.2475 20.4342 25.2971 20.6891 25.8057C20.7573 25.9416 20.941 25.9676 21.0446 25.856C21.097 25.7994 21.1154 25.7194 21.093 25.6457L20.3155 23.0994C20.1084 22.4121 19.9 21.7225 19.7288 21.1705C19.6432 20.8939 19.5692 20.6598 19.5109 20.4816C19.4698 20.3556 19.4456 20.2861 19.4354 20.2568C19.4287 20.2373 19.428 20.2357 19.433 20.2473C18.9283 19.0419 19.5284 17.6686 20.7731 17.1799C22.0179 16.6912 23.4358 17.2723 23.9405 18.4779L25.1168 22.4544C25.1447 22.5491 25.2381 22.6088 25.3364 22.5951C25.4473 22.5797 25.5178 22.4712 25.4911 22.363C25.3935 21.9669 25.3419 21.5534 25.3419 21.1284C25.3419 18.9535 26.302 17.4656 28.3273 16.5616C29.9043 15.8576 31.7755 15.6444 33.32 16.4167C35.0811 17.2972 36.2851 19.0765 36.2851 21.1284Z" fill="#008B96"/>
<path fill-rule="evenodd" clip-rule="evenodd" d="M40.3169 8.02707V10.7026C40.3169 11.4414 40.9186 12.0403 41.6608 12.0403C42.4031 12.0403 43.0047 11.4414 43.0047 10.7026V7.35819C43.0047 6.25 42.1021 5.35156 40.9889 5.35156H37.6291C36.8868 5.35156 36.2852 5.95048 36.2852 6.68932C36.2852 7.42816 36.8868 8.02707 37.6291 8.02707H40.3169Z" fill="#008B96"/>
<path fill-rule="evenodd" clip-rule="evenodd" d="M8.06283 8.02707H10.7507C11.4929 8.02707 12.0946 7.42816 12.0946 6.68932C12.0946 5.95048 11.4929 5.35156 10.7507 5.35156H7.39087C6.27757 5.35156 5.375 6.25 5.375 7.35819V10.7026C5.375 11.4414 5.97667 12.0403 6.71891 12.0403C7.46116 12.0403 8.06283 11.4414 8.06283 10.7026V8.02707Z" fill="#008B96"/>
<path fill-rule="evenodd" clip-rule="evenodd" d="M40.3169 40.1324V37.4569C40.3169 36.7181 40.9186 36.1191 41.6608 36.1191C42.4031 36.1191 43.0047 36.7181 43.0047 37.4569V40.8013C43.0047 41.9095 42.1021 42.8079 40.9889 42.8079H37.6291C36.8868 42.8079 36.2852 42.209 36.2852 41.4702C36.2852 40.7313 36.8868 40.1324 37.6291 40.1324H40.3169Z" fill="#008B96"/>
<path fill-rule="evenodd" clip-rule="evenodd" d="M8.06283 40.1324H10.7507C11.4929 40.1324 12.0946 40.7313 12.0946 41.4702C12.0946 42.209 11.4929 42.8079 10.7507 42.8079H7.39087C6.27757 42.8079 5.375 41.9095 5.375 40.8013V37.4569C5.375 36.7181 5.97667 36.1191 6.71891 36.1191C7.46116 36.1191 8.06283 36.7181 8.06283 37.4569V40.1324Z" fill="#008B96"/>
<path fill-rule="evenodd" clip-rule="evenodd" d="M44.3491 2.67551H4.03174C3.28951 2.67551 2.68783 3.27445 2.68783 4.01326V44.1459C2.68783 44.8848 3.28952 45.4837 4.03174 45.4837H44.3491C45.0914 45.4837 45.693 44.8848 45.693 44.1459V4.01326C45.693 3.27444 45.0914 2.67551 44.3491 2.67551ZM4.03174 0C1.80508 0 0 1.79681 0 4.01326V44.1459C0 46.3624 1.80508 48.1592 4.03174 48.1592H44.3491C46.5758 48.1592 48.3809 46.3624 48.3809 44.1459V4.01326C48.3809 1.79681 46.5758 0 44.3491 0H4.03174Z" fill="#008B96"/>
<path fill-rule="evenodd" clip-rule="evenodd" d="M5.78097 30.0215C5.23847 31.4278 5.9671 33.0085 7.41611 33.4422C12.7422 35.0366 18.3698 35.8955 24.1896 35.8955C30.0093 35.8955 35.6372 35.0365 40.9631 33.4422C42.4123 33.0083 43.1408 31.4276 42.5984 30.0215L35.2249 10.909C34.7256 9.61487 33.3176 8.92539 31.9558 9.21649C29.4504 9.75199 26.8524 10.0341 24.1896 10.0341C21.5268 10.0341 18.929 9.75199 16.4234 9.21649C15.0618 8.92539 13.6537 9.61487 13.1545 10.9091L5.78097 30.0215ZM36.2851 21.1284C36.2851 24.055 33.8354 26.4276 30.8135 26.4276C30.5836 26.4276 30.3568 26.4139 30.1343 26.3871C29.9285 26.6631 29.7085 27.0383 29.4552 27.4703C28.3658 29.3282 26.6623 32.2332 22.8458 32.776C19.8661 33.2047 17.8067 30.706 16.4386 28.0459C16.2666 27.7113 16.0995 27.3888 15.9431 27.09C15.7136 27.1916 15.4679 27.3015 15.2241 27.4104C14.5966 27.6909 13.9821 27.9657 13.6895 28.0788C12.4423 28.5616 11.0272 27.9737 10.5287 26.7658C10.0303 25.558 10.6373 24.1876 11.8845 23.7048C12.0627 23.6359 12.4441 23.465 12.9444 23.241C13.2822 23.0898 13.674 22.9144 14.0944 22.7296C14.5698 22.5205 15.0657 22.3071 15.47 22.1491C15.6657 22.0727 15.8888 21.9898 16.0982 21.9268C16.197 21.8969 16.356 21.852 16.5393 21.8205C16.6302 21.805 16.7822 21.783 16.9678 21.7797C17.112 21.7773 17.5053 21.7785 17.9583 21.9571C18.3354 22.1056 18.5809 22.3104 18.6664 22.3837C18.7792 22.4806 18.8614 22.5689 18.9084 22.6216C19.0029 22.7275 19.0733 22.8241 19.111 22.8772C19.1919 22.9912 19.2658 23.1101 19.3222 23.2037C19.4412 23.401 19.5819 23.6522 19.7288 23.9219C19.9062 24.2475 20.4342 25.2971 20.6891 25.8057C20.7573 25.9416 20.941 25.9676 21.0446 25.856C21.097 25.7994 21.1154 25.7194 21.093 25.6457L20.3155 23.0994C20.1084 22.4121 19.9 21.7225 19.7288 21.1705C19.6432 20.8939 19.5692 20.6598 19.5109 20.4816C19.4698 20.3556 19.4456 20.2861 19.4354 20.2568C19.4287 20.2373 19.428 20.2357 19.433 20.2473C18.9283 19.0419 19.5284 17.6686 20.7731 17.1799C22.0179 16.6912 23.4358 17.2723 23.9405 18.4779L25.1168 22.4544C25.1447 22.5491 25.2381 22.6088 25.3364 22.5951C25.4473 22.5797 25.5178 22.4712 25.4911 22.363C25.3935 21.9669 25.3419 21.5534 25.3419 21.1284C25.3419 18.9535 26.302 17.4656 28.3273 16.5616C29.9043 15.8576 31.7755 15.6444 33.32 16.4167C35.0811 17.2972 36.2851 19.0765 36.2851 21.1284Z" fill="#008B96"/>
<path fill-rule="evenodd" clip-rule="evenodd" d="M40.3169 8.02707V10.7026C40.3169 11.4414 40.9186 12.0403 41.6608 12.0403C42.4031 12.0403 43.0047 11.4414 43.0047 10.7026V7.35819C43.0047 6.25 42.1021 5.35156 40.9889 5.35156H37.6291C36.8868 5.35156 36.2852 5.95048 36.2852 6.68932C36.2852 7.42816 36.8868 8.02707 37.6291 8.02707H40.3169Z" fill="#008B96"/>
<path fill-rule="evenodd" clip-rule="evenodd" d="M8.06283 8.02707H10.7507C11.4929 8.02707 12.0946 7.42816 12.0946 6.68932C12.0946 5.95048 11.4929 5.35156 10.7507 5.35156H7.39087C6.27757 5.35156 5.375 6.25 5.375 7.35819V10.7026C5.375 11.4414 5.97667 12.0403 6.71891 12.0403C7.46116 12.0403 8.06283 11.4414 8.06283 10.7026V8.02707Z" fill="#008B96"/>
<path fill-rule="evenodd" clip-rule="evenodd" d="M40.3169 40.1324V37.4569C40.3169 36.7181 40.9186 36.1191 41.6608 36.1191C42.4031 36.1191 43.0047 36.7181 43.0047 37.4569V40.8013C43.0047 41.9095 42.1021 42.8079 40.9889 42.8079H37.6291C36.8868 42.8079 36.2852 42.209 36.2852 41.4702C36.2852 40.7313 36.8868 40.1324 37.6291 40.1324H40.3169Z" fill="#008B96"/>
<path fill-rule="evenodd" clip-rule="evenodd" d="M8.06283 40.1324H10.7507C11.4929 40.1324 12.0946 40.7313 12.0946 41.4702C12.0946 42.209 11.4929 42.8079 10.7507 42.8079H7.39087C6.27757 42.8079 5.375 41.9095 5.375 40.8013V37.4569C5.375 36.7181 5.97667 36.1191 6.71891 36.1191C7.46116 36.1191 8.06283 36.7181 8.06283 37.4569V40.1324Z" fill="#008B96"/>
</svg>
