<svg width="36" height="33" viewBox="0 0 36 33" fill="none" xmlns="http://www.w3.org/2000/svg">
<path d="M17.3438 11.9658C17.3438 11.6897 17.5676 11.4658 17.8438 11.4658H21.8438C22.1199 11.4658 22.3438 11.6897 22.3438 11.9658C22.3438 12.242 22.1199 12.4658 21.8438 12.4658H17.8438C17.5676 12.4658 17.3438 12.242 17.3438 11.9658Z" fill="white"/>
<path d="M17.8438 13.4658C17.5676 13.4658 17.3438 13.6897 17.3438 13.9658C17.3438 14.242 17.5676 14.4658 17.8438 14.4658H21.8438C22.1199 14.4658 22.3438 14.242 22.3438 13.9658C22.3438 13.6897 22.1199 13.4658 21.8438 13.4658H17.8438Z" fill="white"/>
<path d="M17.3438 18.4658C17.3438 18.1897 17.5676 17.9658 17.8438 17.9658H21.8438C22.1199 17.9658 22.3438 18.1897 22.3438 18.4658C22.3438 18.742 22.1199 18.9658 21.8438 18.9658H17.8438C17.5676 18.9658 17.3438 18.742 17.3438 18.4658Z" fill="white"/>
<path d="M17.8438 19.9658C17.5676 19.9658 17.3438 20.1897 17.3438 20.4658C17.3438 20.742 17.5676 20.9658 17.8438 20.9658H21.8438C22.1199 20.9658 22.3438 20.742 22.3438 20.4658C22.3438 20.1897 22.1199 19.9658 21.8438 19.9658H17.8438Z" fill="white"/>
<path fill-rule="evenodd" clip-rule="evenodd" d="M12.3438 17.9658C12.3438 17.6897 12.5676 17.4658 12.8438 17.4658H15.3438C15.6199 17.4658 15.8438 17.6897 15.8438 17.9658V20.4658C15.8438 20.742 15.6199 20.9658 15.3438 20.9658H12.8438C12.5676 20.9658 12.3438 20.742 12.3438 20.4658V17.9658ZM13.3438 18.4658V19.9658H14.8438V18.4658H13.3438Z" fill="white"/>
<path d="M16.1973 12.3194C16.3925 12.1241 16.3925 11.8075 16.1973 11.6123C16.002 11.417 15.6854 11.417 15.4902 11.6123L13.8437 13.2587L13.1973 12.6123C13.002 12.417 12.6854 12.417 12.4902 12.6123C12.2949 12.8075 12.2949 13.1241 12.4902 13.3194L13.8437 14.6729L16.1973 12.3194Z" fill="white"/>
<path fill-rule="evenodd" clip-rule="evenodd" d="M12.3438 7.46582C11.2392 7.46582 10.3438 8.36125 10.3438 9.46582V23.4654C10.3438 24.57 11.2392 25.4654 12.3438 25.4654H22.3438C23.4483 25.4654 24.3438 24.57 24.3438 23.4654V9.46582C24.3438 8.36125 23.4483 7.46582 22.3438 7.46582H12.3438ZM11.3438 9.46582C11.3438 8.91354 11.7915 8.46582 12.3438 8.46582H22.3438C22.896 8.46582 23.3438 8.91354 23.3438 9.46582V23.4654C23.3438 24.0177 22.896 24.4654 22.3438 24.4654H12.3438C11.7915 24.4654 11.3438 24.0177 11.3438 23.4654V9.46582Z" fill="white"/>
<path fill-rule="evenodd" clip-rule="evenodd" d="M25.3438 12.4658C25.3438 11.6374 26.0153 10.9658 26.8438 10.9658C27.6722 10.9658 28.3438 11.6374 28.3438 12.4658V22.6172L26.8438 24.8672L25.3438 22.6172V12.4658ZM26.8438 11.9658C26.5676 11.9658 26.3438 12.1897 26.3438 12.4658V13.4658H27.3438V12.4658C27.3438 12.1897 27.1199 11.9658 26.8438 11.9658ZM26.8438 23.0644L26.3438 22.3144V14.4658H27.3438V22.3144L26.8438 23.0644Z" fill="white"/>
<path d="M18 0.5C27.7068 0.5 35.5 7.70351 35.5 16.5C35.5 25.2965 27.7068 32.5 18 32.5C8.29317 32.5 0.5 25.2965 0.5 16.5C0.5 7.70351 8.29317 0.5 18 0.5Z" stroke="white"/>
</svg>
