<svg width="49" height="49" viewBox="0 0 49 49" fill="none" xmlns="http://www.w3.org/2000/svg">
<path d="M17.3087 8.01367C12.15 8.01367 8.38281 13.3317 8.38281 19.0668C8.38281 20.3985 8.56471 21.6806 8.89044 22.9088H13.3418L18.1081 14.6916L21.0864 24.8001L24.7309 20.256H32.4531C33.2301 20.256 33.8599 20.8668 33.8599 21.6203C33.8599 22.3737 33.2301 22.9845 32.4531 22.9845H26.1071L19.904 30.7186L17.255 21.7277L14.9873 25.6372H9.87697C13.9915 34.6064 25.1845 40.0677 25.1845 40.0677C25.1845 40.0677 41.9862 31.3418 41.9862 19.0668C41.9862 13.3326 38.2195 8.01367 33.0602 8.01367C29.4803 8.01367 26.8241 10.4 25.1845 13.7845C23.5449 10.3997 20.8885 8.01367 17.3087 8.01367Z" fill="#008B96"/>
<path fill-rule="evenodd" clip-rule="evenodd" d="M0 4.00675C0 1.79389 1.81914 0 4.06315 0H44.6947C46.9387 0 48.7578 1.79389 48.7578 4.00675V44.0743C48.7578 46.2872 46.9387 48.0811 44.6947 48.0811H4.06315C1.81914 48.0811 0 46.2872 0 44.0743V4.00675ZM2.70877 4.00675C2.70877 3.26914 3.31514 2.67117 4.06315 2.67117H44.6947C45.4427 2.67117 46.049 3.26912 46.049 4.00675V44.0743C46.049 44.8119 45.4427 45.4099 44.6947 45.4099H4.06315C3.31515 45.4099 2.70877 44.8119 2.70877 44.0743V25.6372H9.86628L8.87677 22.9084L2.70877 22.9088V4.00675Z" fill="#008B96"/>
</svg>
