<svg width="30" height="24" viewBox="0 0 30 24" fill="none" xmlns="http://www.w3.org/2000/svg">
<path d="M27.2177 0.549805C28.0782 0.549805 28.7274 1.28042 28.3802 2.63937L24.168 21.8546C23.8736 23.2208 23.0206 23.5496 21.843 22.9139L11.7956 15.732C11.7567 15.7049 11.7249 15.6693 11.703 15.628C11.6811 15.5867 11.6697 15.541 11.6697 15.4945C11.6697 15.4481 11.6811 15.4024 11.703 15.3611C11.7249 15.3198 11.7567 15.2842 11.7956 15.2571L23.398 5.11615C23.9264 4.66317 23.2848 4.44399 22.5903 4.85313L8.02882 13.7447C7.98465 13.7726 7.93451 13.7904 7.8822 13.7967C7.82988 13.803 7.77676 13.7978 7.72687 13.7813L1.54446 11.889C0.170593 11.5017 0.170593 10.5885 1.85396 9.93821L26.5911 0.703234C26.7873 0.612142 27.0003 0.559974 27.2177 0.549805Z" stroke="black" stroke-width="1.1" stroke-linecap="round" stroke-linejoin="round"/>
</svg>
