<svg width="29" height="28" viewBox="0 0 29 28" fill="none" xmlns="http://www.w3.org/2000/svg">
<path d="M14.2612 7.41089C12.9685 7.41089 11.7047 7.77866 10.6298 8.4677C9.5549 9.15674 8.71711 10.1361 8.22239 11.2819C7.72766 12.4278 7.59822 13.6886 7.85043 14.905C8.10264 16.1214 8.72517 17.2388 9.6393 18.1157C10.5534 18.9927 11.7181 19.5899 12.986 19.8319C14.254 20.0739 15.5682 19.9497 16.7626 19.4751C17.957 19.0004 18.9778 18.1967 19.696 17.1655C20.4143 16.1343 20.7976 14.9219 20.7976 13.6816C20.7957 12.0191 20.1064 10.4252 18.881 9.24962C17.6556 8.07404 15.9942 7.41277 14.2612 7.41089ZM14.2612 18.8123C13.2035 18.8123 12.1695 18.5114 11.2901 17.9476C10.4106 17.3838 9.72513 16.5825 9.32036 15.645C8.91558 14.7075 8.80968 13.6759 9.01603 12.6807C9.22238 11.6855 9.73173 10.7713 10.4797 10.0537C11.2276 9.33622 12.1805 8.84757 13.2179 8.64961C14.2553 8.45164 15.3306 8.55325 16.3078 8.94157C17.285 9.32989 18.1203 9.9875 18.7079 10.8312C19.2955 11.6749 19.6092 12.6669 19.6092 13.6816C19.6076 15.0419 19.0436 16.346 18.041 17.3078C17.0385 18.2697 15.6791 18.8107 14.2612 18.8123ZM20.7976 0H7.72483C5.67679 0.00222551 3.7133 0.783728 2.26511 2.17306C0.816929 3.56239 0.00231979 5.44608 0 7.41089V19.9524C0.00231979 21.9172 0.816929 23.8009 2.26511 25.1902C3.7133 26.5796 5.67679 27.3611 7.72483 27.3633H20.7976C22.8457 27.3611 24.8092 26.5796 26.2573 25.1902C27.7055 23.8009 28.5201 21.9172 28.5225 19.9524V7.41089C28.5201 5.44608 27.7055 3.56239 26.2573 2.17306C24.8092 0.783728 22.8457 0.00222551 20.7976 0ZM27.334 19.9524C27.3321 21.6149 26.6428 23.2088 25.4174 24.3844C24.192 25.56 22.5306 26.2213 20.7976 26.2231H7.72483C5.99187 26.2213 4.33045 25.56 3.10506 24.3844C1.87968 23.2088 1.19039 21.6149 1.18844 19.9524V7.41089C1.19039 5.74836 1.87968 4.15446 3.10506 2.97887C4.33045 1.80328 5.99187 1.14201 7.72483 1.14014H20.7976C22.5306 1.14201 24.192 1.80328 25.4174 2.97887C26.6428 4.15446 27.3321 5.74836 27.334 7.41089V19.9524ZM23.1745 6.27075C23.1745 6.49625 23.1048 6.71668 22.9742 6.90418C22.8436 7.09167 22.658 7.23781 22.4409 7.3241C22.2237 7.4104 21.9847 7.43297 21.7542 7.38898C21.5237 7.34499 21.3119 7.2364 21.1457 7.07695C20.9795 6.9175 20.8663 6.71435 20.8205 6.49318C20.7746 6.27202 20.7981 6.04277 20.8881 5.83444C20.978 5.62611 21.1304 5.44804 21.3258 5.32276C21.5212 5.19748 21.751 5.13062 21.9861 5.13062C22.3011 5.13096 22.6032 5.25119 22.826 5.46494C23.0488 5.67868 23.1741 5.96848 23.1745 6.27075Z" fill="black" stroke="black" stroke-width="0.00064"/>
</svg>
