<svg width="36" height="33" viewBox="0 0 36 33" fill="none" xmlns="http://www.w3.org/2000/svg">
<path d="M18 0.5C27.7068 0.5 35.5 7.70351 35.5 16.5C35.5 25.2965 27.7068 32.5 18 32.5C8.29317 32.5 0.5 25.2965 0.5 16.5C0.5 7.70351 8.29317 0.5 18 0.5Z" stroke="white"/>
<path fill-rule="evenodd" clip-rule="evenodd" d="M9.17409 11.4607C8.94197 11.6748 8.94197 12.0218 9.17409 12.2359C9.4062 12.45 9.78253 12.45 10.0146 12.2359L10.4352 11.8481L12.5363 13.7859L10.8552 15.3363C10.6231 15.5504 10.6231 15.8975 10.8552 16.1116C11.0873 16.3256 11.4636 16.3256 11.6958 16.1116L12.5361 15.3365L19.6811 21.9261C20.5428 22.7208 21.802 22.9255 22.8684 22.5401L23.4635 23.089C23.7748 23.3761 24.2156 23.4707 24.6123 23.3728L25.9854 24.6392C26.2175 24.8533 26.5938 24.8533 26.8259 24.6392C27.058 24.4252 27.058 24.0781 26.8259 23.864L25.4526 22.5974C25.5584 22.2317 25.4557 21.8255 25.1447 21.5386L24.5496 20.9897C24.9675 20.0061 24.7456 18.8447 23.8839 18.05L16.7389 11.4603L17.5797 10.6849C17.8118 10.4709 17.8118 10.1238 17.5797 9.90972C17.3476 9.69565 16.9712 9.69565 16.7391 9.90972L15.058 11.4602L12.9569 9.52237L13.3769 9.13501C13.609 8.92093 13.609 8.57385 13.3769 8.35977C13.1448 8.1457 12.7685 8.1457 12.5363 8.35977L9.17409 11.4607ZM14.3315 12.1302L12.2304 10.1923L11.1616 11.1781L13.2628 13.1159L14.3315 12.1302ZM16.0125 12.1303L13.2626 14.6665L15.5258 16.7539L18.2757 14.2176L16.0125 12.1303ZM16.3664 17.5291L17.6272 18.6919L18.582 17.8114C18.8141 17.5973 19.1905 17.5973 19.4226 17.8114C19.6547 18.0255 19.6547 18.3725 19.4226 18.5866L18.4678 19.4672L19.3081 20.2422L20.263 19.3616C20.4951 19.1475 20.8715 19.1475 21.1036 19.3616C21.3357 19.5757 21.3357 19.9227 21.1036 20.1368L20.1487 21.0174L20.4076 21.2562C20.9716 21.7764 21.796 21.9102 22.494 21.6575L23.5927 20.6443C23.8666 20.0005 23.7215 19.2402 23.1575 18.72L19.1163 14.9929L16.3664 17.5291ZM24.4325 22.2236C24.4282 22.2183 24.4234 22.2133 24.4182 22.2086L23.9949 21.8181C23.9592 21.8548 23.9222 21.8908 23.8839 21.9261C23.8456 21.9615 23.8065 21.9956 23.7666 22.0286L24.19 22.4191C24.1952 22.4238 24.2007 22.4282 24.2064 22.4323C24.2323 22.3898 24.265 22.3497 24.3042 22.3135C24.3434 22.2775 24.3866 22.2475 24.4325 22.2236Z" fill="white"/>
</svg>
