<svg width="18" height="21" viewBox="0 0 18 21" fill="none" xmlns="http://www.w3.org/2000/svg">
<path d="M0.649902 8.55672C0.649902 4.19017 4.27198 0.650391 8.74004 0.650391C13.2081 0.650391 16.8302 4.19017 16.8302 8.55672C16.8302 12.8891 14.2481 17.9444 10.2194 19.7523C9.28036 20.1737 8.19972 20.1737 7.26066 19.7523C3.23199 17.9444 0.649902 12.8891 0.649902 8.55672Z" stroke="#008B96" stroke-width="1.3"/>
<path d="M8.74034 11.3293C10.4159 11.3293 11.7741 10.0252 11.7741 8.4166C11.7741 6.80797 10.4159 5.50391 8.74034 5.50391C7.06482 5.50391 5.70654 6.80797 5.70654 8.4166C5.70654 10.0252 7.06482 11.3293 8.74034 11.3293Z" stroke="#008B96" stroke-width="1.3"/>
</svg>
