<svg width="64" height="64" viewBox="0 0 64 64" fill="none" xmlns="http://www.w3.org/2000/svg">
<path fill-rule="evenodd" clip-rule="evenodd" d="M31.6085 14.7259C31.864 14.6474 32.1373 14.6474 32.3928 14.7259L49.7261 20.0592C50.2856 20.2314 50.6673 20.7483 50.6673 21.3336V22.667H52.0007C55.6825 22.667 58.6673 25.6518 58.6673 29.3336V34.667C58.6673 38.3488 55.6825 41.3336 52.0007 41.3336H48.7254C47.2289 43.6328 44.9521 45.4103 42.1964 46.2582L32.3928 49.2747C32.1373 49.3532 31.864 49.3532 31.6085 49.2747L21.8049 46.2582C19.0492 45.4103 16.7724 43.6328 15.2759 41.3336H12.0007C8.31876 41.3336 5.33398 38.3488 5.33398 34.667V29.3336C5.33398 25.6518 8.31876 22.667 12.0007 22.667H13.334V21.3336C13.334 20.7483 13.7157 20.2314 14.2752 20.0592L31.6085 14.7259ZM13.334 25.3336H12.0007C9.79152 25.3336 8.00065 27.1244 8.00065 29.3336V34.667C8.00065 36.8762 9.79152 38.667 12.0007 38.667H13.9771C13.5585 37.4422 13.334 36.1356 13.334 34.7888V25.3336ZM50.6673 34.7888V25.3336H52.0007C54.2099 25.3336 56.0007 27.1244 56.0007 29.3336V34.667C56.0007 36.8762 54.2099 38.667 52.0007 38.667H50.0243C50.4428 37.4422 50.6673 36.1356 50.6673 34.7888ZM16.0007 22.3184V34.7888C16.0007 38.8862 18.6731 42.5044 22.5892 43.7095L32.0007 46.6052L41.4121 43.7095C45.3283 42.5044 48.0007 38.8862 48.0007 34.7888V22.3184L32.0007 17.3954L16.0007 22.3184ZM24.0007 28.0003V25.3336H40.0007V28.0003H24.0007ZM24.0007 36.0003H40.0007V33.3336H24.0007V36.0003Z" fill="#008B96"/>
</svg>
