<svg width="64" height="64" viewBox="0 0 64 64" fill="none" xmlns="http://www.w3.org/2000/svg">
<path fill-rule="evenodd" clip-rule="evenodd" d="M25.7507 10.8933L25.8696 10.8256C26.896 10.2408 28.2104 10.5908 28.8052 11.6073C28.8875 11.7479 28.9516 11.8939 28.9985 12.0426C30.7772 11.4381 32.8007 12.1441 33.7798 13.8175L39.81 24.1231C40.9206 26.0211 40.2671 28.4448 38.3505 29.5367L37.2192 30.1811L38.122 31.9152L34.5568 33.7205L33.7447 32.1604L32.8551 32.6672C30.9385 33.7589 28.4844 33.1055 27.3739 31.2075L23.6594 24.8593C20.1127 26.8472 17.6757 29.0715 16.3825 31.6236C15.3185 33.7231 14.9689 36.1637 15.5576 39.0941C17.4671 38.0449 19.6631 37.4477 21.9993 37.4477C27.3824 37.4477 32.0203 40.6181 34.1259 45.1827L50.4482 40.8855L51.1471 43.4431L34.9891 47.6971C35.2139 48.6617 35.3327 49.6668 35.3327 50.6993C35.3327 51.6069 35.2408 52.4933 35.066 53.3497H52.666C53.4024 53.3497 53.9994 53.9429 53.9994 54.6748C53.9994 55.4067 53.4024 56 52.666 56L9.77551 56.0001C9.0619 54.3768 8.66602 52.584 8.66602 50.6993C8.66602 46.73 10.4219 43.1683 13.2039 40.7396C12.1886 36.8601 12.477 33.4385 14.0008 30.4315C15.6153 27.2453 18.5313 24.6959 22.3187 22.568L21.3436 20.9019C20.4716 19.4116 20.6872 17.5973 21.7477 16.358C21.5921 16.216 21.4552 16.0488 21.3436 15.858C20.7488 14.8415 21.0987 13.5433 22.1252 12.9586L22.2797 12.8706L20.6217 9.91351L24.1284 8L25.7507 10.8933ZM37.4964 25.4411L31.4661 15.1355C31.096 14.5028 30.278 14.2849 29.6391 14.6488L24.1437 17.7793C23.5048 18.1433 23.2871 18.9512 23.6572 19.5839L29.6875 29.8895C30.0576 30.5221 30.8756 30.74 31.5145 30.3761L37.0099 27.2456C37.6488 26.8816 37.8666 26.0737 37.4964 25.4411ZM32.666 50.6993C32.666 51.6108 32.5505 52.4929 32.3337 53.3335H11.6649C11.4482 52.4929 11.3327 51.6108 11.3327 50.6993C11.3327 44.8688 16.0928 40.1144 21.9993 40.1144C26.1475 40.1144 29.7301 42.4593 31.4957 45.8752L22.9389 48.128L23.6379 50.6856L32.408 48.3765C32.5769 49.1244 32.666 49.9019 32.666 50.6993Z" fill="#008B96"/>
<path d="M43.0163 26.2627C42.9939 27.1974 42.7719 28.1175 42.3672 28.9591L44.0059 29.9338C44.6377 30.3095 45.4405 30.0959 45.7989 29.4566C46.1572 28.8171 45.9355 27.9942 45.3036 27.6184L43.1079 26.3126C43.0777 26.2946 43.0471 26.2779 43.0163 26.2627Z" fill="#008B96"/>
<path d="M42.1796 32.1461C41.8565 32.142 41.5348 32.1225 41.2153 32.0879L41.7245 33.0659L39.1075 34.3911C40.0955 34.6459 41.1149 34.7832 42.1456 34.7963C44.7295 34.8289 47.2621 34.0792 49.4228 32.6459C51.5832 31.2127 53.2731 29.162 54.2843 26.7571C55.2952 24.3523 55.5839 21.6979 55.1152 19.1279C54.6464 16.5579 53.4403 14.1828 51.6441 12.3047C49.8477 10.4262 47.5413 9.12919 45.0144 8.58315C42.4872 8.03707 39.8583 8.26793 37.4616 9.24514C36.4709 9.6491 35.5388 10.1728 34.6836 10.8008C35.2276 11.2687 35.7041 11.8325 36.086 12.485L36.324 12.8918C36.9891 12.4102 37.7101 12.0085 38.4737 11.6972C40.3717 10.9233 42.4503 10.7413 44.4479 11.173C46.4457 11.6047 48.2781 12.632 49.7113 14.1307C51.1448 15.6296 52.114 17.5327 52.4912 19.6007C52.8684 21.6688 52.6356 23.8041 51.8237 25.7352C51.012 27.666 49.6595 29.3024 47.9424 30.4415C46.2259 31.5801 44.2205 32.172 42.1796 32.1461Z" fill="#008B96"/>
<path d="M46.8679 19.6539C46.3565 20.1806 46.3565 21.0344 46.8679 21.5611C47.3791 22.0879 48.2081 22.0879 48.7193 21.5611L50.5121 19.7144C51.0235 19.1876 51.0235 18.3338 50.5121 17.8071C50.0008 17.2804 49.1719 17.2804 48.6605 17.8071L46.8679 19.6539Z" fill="#008B96"/>
<path d="M40.8677 17.822C41.3789 18.3487 42.208 18.3487 42.7192 17.822C43.2305 17.2953 43.2305 16.4413 42.7192 15.9147L40.9264 14.0679C40.4152 13.5412 39.5861 13.5412 39.0749 14.0679C38.5636 14.5945 38.5636 15.4485 39.0749 15.9752L40.8677 17.822Z" fill="#008B96"/>
<path d="M44.8693 22.0285C44.8693 21.3073 44.3017 20.7227 43.6017 20.7227C42.9016 20.7227 42.334 21.3073 42.334 22.0285C42.334 22.7497 42.9016 23.3344 43.6017 23.3344C44.3017 23.3344 44.8693 22.7497 44.8693 22.0285Z" fill="#008B96"/>
<path d="M47.3342 15.5637C47.3342 14.8425 46.7666 14.2578 46.0664 14.2578C45.3663 14.2578 44.7988 14.8425 44.7988 15.5637C44.7988 16.2849 45.3663 16.8695 46.0664 16.8695C46.7666 16.8695 47.3342 16.2849 47.3342 15.5637Z" fill="#008B96"/>
<path d="M48.6623 25.5012C48.6623 24.78 48.0948 24.1953 47.3947 24.1953C46.6946 24.1953 46.127 24.78 46.127 25.5012C46.127 26.2224 46.6946 26.807 47.3947 26.807C48.0948 26.807 48.6623 26.2224 48.6623 25.5012Z" fill="#008B96"/>
</svg>
