<svg width="72" height="64" viewBox="0 0 72 64" fill="none" xmlns="http://www.w3.org/2000/svg">
<path d="M24 26.667C23.1716 26.667 22.5 27.2639 22.5 28.0003C22.5 28.7367 23.1716 29.3337 24 29.3337H34.5C35.3285 29.3337 36 28.7367 36 28.0003C36 27.2639 35.3285 26.667 34.5 26.667H24Z" fill="#008B96"/>
<path d="M22.5 21.3333C22.5 20.5969 23.1715 20 24 20H47.25C48.0784 20 48.75 20.5969 48.75 21.3333C48.75 22.0697 48.0784 22.6667 47.25 22.6667H24C23.1715 22.6667 22.5 22.0697 22.5 21.3333Z" fill="#008B96"/>
<path fill-rule="evenodd" clip-rule="evenodd" d="M22.5 37.3333C22.5 36.5969 23.1716 36 24 36H30C30.8285 36 31.5 36.5969 31.5 37.3333V42.6667C31.5 43.4031 30.8285 44 30 44H24C23.1716 44 22.5 43.4031 22.5 42.6667V37.3333ZM25.5 41.3333V38.6667H28.5V41.3333H25.5Z" fill="#008B96"/>
<path fill-rule="evenodd" clip-rule="evenodd" d="M42 41.333C44.4862 41.333 46.5 39.543 46.5 37.333C46.5 35.123 44.4862 33.333 42 33.333C39.5138 33.333 37.5 35.123 37.5 37.333C37.5 39.543 39.5138 41.333 42 41.333ZM42 38.6663C42.8293 38.6663 43.5 38.0702 43.5 37.333C43.5 36.5958 42.8293 35.9997 42 35.9997C41.1707 35.9997 40.5 36.5958 40.5 37.333C40.5 38.0702 41.1707 38.6663 42 38.6663Z" fill="#008B96"/>
<path fill-rule="evenodd" clip-rule="evenodd" d="M33 46.9094C33 44.0882 38.9963 42.667 42 42.667C45.0037 42.667 51 44.0882 51 46.9094V52.0003H33V46.9094ZM36.0823 46.9619C36.0457 46.9938 36.019 47.0197 36 47.0394V49.3337H48V47.0394C47.981 47.0197 47.9543 46.9938 47.9177 46.9619C47.6721 46.7483 47.197 46.4654 46.4532 46.1846C44.9533 45.6181 43.1028 45.3337 42 45.3337C40.8972 45.3337 39.0467 45.6181 37.5468 46.1846C36.803 46.4654 36.3279 46.7483 36.0823 46.9619Z" fill="#008B96"/>
<path fill-rule="evenodd" clip-rule="evenodd" d="M25.5 9.33301C25.5 7.12387 27.5147 5.33301 30 5.33301H42C44.4854 5.33301 46.5 7.12387 46.5 9.33301H52.5C54.9854 9.33301 57 11.1239 57 13.333V54.6663C57 56.8755 54.9854 58.6663 52.5 58.6663H19.5C17.0147 58.6663 15 56.8755 15 54.6663V13.333C15 11.1239 17.0147 9.33301 19.5 9.33301H25.5ZM42 15.9997C44.4854 15.9997 46.5 14.2089 46.5 11.9997H52.5C53.3285 11.9997 54 12.5966 54 13.333V54.6663C54 55.4027 53.3285 55.9997 52.5 55.9997H19.5C18.6716 55.9997 18 55.4027 18 54.6663V13.333C18 12.5966 18.6716 11.9997 19.5 11.9997H25.5C25.5 14.2089 27.5147 15.9997 30 15.9997H42ZM30 7.99967C29.1716 7.99967 28.5 8.59663 28.5 9.33301V11.9997C28.5 12.736 29.1716 13.333 30 13.333H42C42.8285 13.333 43.5 12.736 43.5 11.9997V9.33301C43.5 8.59663 42.8285 7.99967 42 7.99967H30Z" fill="#008B96"/>
</svg>
