<svg width="29" height="27" viewBox="0 0 29 27" fill="none" xmlns="http://www.w3.org/2000/svg">
<ellipse cx="14.4492" cy="13.2476" rx="14.4492" ry="13.2476" fill="#008B96"/>
<path fill-rule="evenodd" clip-rule="evenodd" d="M18.5807 4.97802C18.5956 4.99585 18.6098 5.01528 18.6221 5.03502L18.6227 5.03598L18.6241 5.03817L18.6287 5.04558L18.645 5.0723C18.659 5.09531 18.679 5.12859 18.7041 5.17136C18.7545 5.25689 18.8256 5.38051 18.9105 5.53599C19.08 5.8466 19.3059 6.28625 19.5319 6.8048C19.9787 7.82945 20.4492 9.21315 20.4492 10.5315C20.4492 12.0229 19.4415 12.8498 18.5557 13.277C18.1096 13.4922 17.6691 13.6209 17.3437 13.6961C17.2809 13.7106 17.222 13.7232 17.1677 13.7341C16.4541 14.3955 15.4989 14.7998 14.4492 14.7998C13.1828 14.7998 12.0538 14.2113 11.3209 13.2928L11.2975 13.2908C11.2175 13.2836 11.106 13.2709 10.9734 13.2479C10.7106 13.2025 10.3524 13.1151 9.98777 12.945C9.62292 12.7747 9.23527 12.5137 8.93827 12.1133C8.63662 11.7067 8.44922 11.1838 8.44922 10.5315C8.44922 9.29795 9.05022 7.8961 9.60197 6.8552C9.88387 6.32335 10.1652 5.86345 10.376 5.53647C10.4816 5.37274 10.5698 5.24175 10.6321 5.15106C10.6633 5.1057 10.688 5.07038 10.7052 5.04604L10.7213 5.02328L10.7273 5.01389C10.738 4.99708 10.7526 4.97497 10.7713 4.94834C10.8086 4.8951 10.8623 4.82356 10.934 4.73998C11.0772 4.57291 11.2931 4.35666 11.5939 4.14248C12.2008 3.71041 13.1359 3.2998 14.4766 3.2998C15.8141 3.2998 16.8326 3.70814 17.5188 4.12151C17.861 4.32767 18.1206 4.53497 18.297 4.69353C18.3854 4.7729 18.4532 4.84034 18.5004 4.88976C18.5241 4.91448 18.5426 4.93473 18.556 4.94974C18.5627 4.95725 18.5682 4.96345 18.5723 4.96826L18.5776 4.97441L18.5795 4.97668L18.5803 4.97761L18.5807 4.97802ZM11.5679 5.55567C11.5603 5.56833 11.5522 5.58066 11.5436 5.59261L11.5427 5.59382L11.5388 5.59923L11.5222 5.62266C11.5073 5.64376 11.485 5.67565 11.4563 5.7174C11.3989 5.8009 11.3161 5.9237 11.2165 6.0783C11.0168 6.388 10.7509 6.82285 10.4855 7.3235C9.94272 8.34755 9.44922 9.56155 9.44922 10.5315C9.44922 10.9808 9.57432 11.2923 9.74142 11.5176C9.91317 11.7491 10.1505 11.9174 10.4107 12.0388C10.5342 12.0965 10.6592 12.1418 10.7784 12.1773C10.6997 11.8172 10.6144 11.3585 10.5639 10.8775C10.5075 10.3403 10.4909 9.74475 10.5919 9.21855C10.691 8.70215 10.9255 8.1477 11.4627 7.85925C12.1772 7.47575 13.3862 6.96295 14.4522 6.60915C14.9838 6.4327 15.5021 6.2883 15.9166 6.22255C16.1204 6.19025 16.329 6.17185 16.513 6.19075C16.6575 6.2056 16.9556 6.2602 17.1209 6.5304C18.4611 8.46515 18.4807 10.2377 18.1412 11.5326C18.0432 11.9066 17.916 12.2382 17.785 12.5205C17.8958 12.4784 18.0088 12.4306 18.1213 12.3763C18.8462 12.0267 19.4492 11.4694 19.4492 10.5315C19.4492 9.42035 19.0442 8.1882 18.6153 7.2044C18.4035 6.7187 18.1915 6.306 18.0328 6.01525C17.9535 5.87005 17.8878 5.75577 17.8423 5.67855C17.8225 5.64491 17.8066 5.61833 17.7951 5.59933L17.7833 5.58677L17.7777 5.58094C17.7466 5.54832 17.6968 5.49858 17.6286 5.43732C17.4921 5.31463 17.2831 5.14693 17.0028 4.9781C16.444 4.64146 15.6018 4.2998 14.4766 4.2998C13.3546 4.2998 12.6205 4.63919 12.1739 4.95712C11.948 5.11794 11.7911 5.27669 11.6932 5.39088C11.6443 5.44792 11.6103 5.49357 11.5901 5.52236C11.5801 5.53674 11.5734 5.54686 11.5701 5.55203L11.5679 5.55567ZM18.6221 5.03502C18.622 5.03491 18.622 5.03482 18.198 5.2998L18.6221 5.03502ZM18.198 5.2998L18.5807 4.97802C18.5808 4.97821 18.581 4.9784 18.198 5.2998ZM11.8206 12.2467C11.8086 12.1974 11.7961 12.1445 11.7833 12.0884C11.7025 11.7358 11.6099 11.2631 11.5584 10.773C11.5063 10.277 11.4999 9.7934 11.574 9.407C11.65 9.0108 11.7889 8.81915 11.9357 8.74035C12.5894 8.3894 13.7436 7.89795 14.7672 7.55825C15.2803 7.38795 15.7384 7.2633 16.0732 7.2102C16.1999 7.19015 16.2927 7.183 16.3557 7.1831C17.4545 8.81735 17.4432 10.2518 17.1739 11.279C17.0345 11.8107 16.8233 12.241 16.6474 12.5375C16.5597 12.6853 16.4815 12.7985 16.4269 12.8728C16.3997 12.9099 16.3784 12.9372 16.3648 12.9541C16.3635 12.9557 16.3623 12.9572 16.3612 12.9586C16.3563 12.9647 16.3527 12.969 16.3505 12.9716L16.3488 12.9738L16.3482 12.9744C16.2893 13.0431 16.2516 13.1246 16.236 13.2099C15.7369 13.5805 15.1187 13.7998 14.4492 13.7998C13.317 13.7998 12.3313 13.1726 11.8206 12.2467ZM16.4391 7.19025C16.4387 7.1905 16.4341 7.1898 16.4263 7.18745C16.4356 7.18885 16.4395 7.19005 16.4391 7.19025Z" fill="white"/>
<path fill-rule="evenodd" clip-rule="evenodd" d="M11.4063 15.2274C11.3005 15.0164 11.1699 14.7559 10.9492 14.8061C8.24712 15.4215 5.44922 17.1971 5.44922 19.0848V21.7998H23.4492V19.0848C23.4492 17.5979 21.7133 16.1806 19.6556 15.345L19.6489 15.3311L19.6464 15.3262L19.6298 15.3345C19.083 15.1141 18.514 14.9348 17.9492 14.8061C17.6978 14.7489 17.438 15.0949 17.3239 15.3117H15.2918C14.8484 15.3118 14.6221 15.3117 14.4003 15.3117H14.3877C14.1611 15.3116 13.9345 15.3116 13.4812 15.3117H11.4492C11.4353 15.2852 11.421 15.2568 11.4063 15.2274ZM18.1507 15.8878C18.3691 15.9481 18.5867 16.0161 18.8014 16.0911C18.8073 16.2621 18.7944 16.464 18.7663 16.6698C18.738 16.8777 18.6958 17.0771 18.6489 17.2379C18.6426 17.2597 18.6363 17.2803 18.63 17.2998H17.9492C17.7598 17.2998 17.5867 17.4068 17.502 17.5762L17.002 18.5762C16.9673 18.6456 16.9492 18.7222 16.9492 18.7998V19.7998C16.9492 20.076 17.1731 20.2998 17.4492 20.2998H18.4492V19.2998H17.9492V18.9179L18.2582 18.2998H19.6402L19.9492 18.9179V19.2998H19.4492V20.2998H20.4492C20.7254 20.2998 20.9492 20.076 20.9492 19.7998V18.7998C20.9492 18.7222 20.9312 18.6456 20.8964 18.5762L20.3964 17.5762C20.3117 17.4068 20.1386 17.2998 19.9492 17.2998H19.666C19.703 17.1424 19.7341 16.9741 19.7571 16.8049C19.771 16.7034 19.7822 16.5995 19.7901 16.4956C20.2776 16.726 20.7309 16.9901 21.1231 17.2762C22.0844 17.9775 22.4492 18.6333 22.4492 19.0848V20.7998H6.44922V19.0848C6.44922 18.6333 6.81408 17.9775 7.77537 17.2762C8.25847 16.9237 8.83447 16.6047 9.45277 16.3408C9.45922 16.4956 9.47412 16.6529 9.49487 16.8049C9.52902 17.0553 9.58062 17.3038 9.64307 17.5179L9.64722 17.532C9.22772 17.7979 8.94922 18.2664 8.94922 18.7998C8.94922 19.6283 9.62077 20.2998 10.4492 20.2998C11.2777 20.2998 11.9492 19.6283 11.9492 18.7998C11.9492 18.031 11.3708 17.3972 10.6253 17.31C10.618 17.2875 10.6105 17.2635 10.6031 17.2379C10.5562 17.0771 10.514 16.8777 10.4857 16.6698C10.4573 16.4612 10.4444 16.2567 10.4509 16.0842C10.4524 16.0425 10.455 16.0053 10.4583 15.9723C10.5183 15.9539 10.5784 15.9359 10.6386 15.9186L10.8456 16.3117H13.4814C13.9448 16.3116 14.168 16.3116 14.394 16.3117C14.6149 16.3117 14.8385 16.3118 15.2918 16.3117H17.9275L18.1507 15.8878ZM10.4492 19.3072C10.7184 19.3072 10.9492 19.0869 10.9492 18.7998C10.9492 18.5127 10.7184 18.2925 10.4492 18.2925C10.18 18.2925 9.94922 18.5127 9.94922 18.7998C9.94922 19.0869 10.18 19.3072 10.4492 19.3072Z" fill="white"/>
</svg>
