<svg width="29" height="27" viewBox="0 0 29 27" fill="none" xmlns="http://www.w3.org/2000/svg">
<path d="M28.8984 13.2476C28.8984 20.564 22.4293 26.4951 14.4492 26.4951C6.46914 26.4951 0 20.564 0 13.2476C0 5.93113 6.46914 0 14.4492 0C22.4293 0 28.8984 5.93113 28.8984 13.2476Z" fill="#008B96"/>
<path fill-rule="evenodd" clip-rule="evenodd" d="M20.0918 9.50304C20.0918 8.72739 20.7234 8.09863 21.5026 8.09863C22.2818 8.09863 22.9135 8.72739 22.9135 9.50304V19.0075L21.5026 21.1141L20.0918 19.0075V9.50304ZM21.5026 9.03491C21.2429 9.03491 21.0324 9.24449 21.0324 9.50304V10.4393H21.9729V9.50304C21.9729 9.24449 21.7624 9.03491 21.5026 9.03491ZM21.5026 19.4262L21.0324 18.724V11.3756H21.9729V18.724L21.5026 19.4262Z" fill="white"/>
<path fill-rule="evenodd" clip-rule="evenodd" d="M7.86549 4.82129C6.82658 4.82129 5.98438 5.65966 5.98438 6.69384V19.8013C5.98438 20.8355 6.82658 21.6738 7.86549 21.6738H17.2711C18.31 21.6738 19.1522 20.8355 19.1522 19.8013V6.69384C19.1522 5.65966 18.31 4.82129 17.2711 4.82129H7.86549ZM6.92493 6.69384C6.92493 6.17675 7.34603 5.75756 7.86549 5.75756H17.2711C17.7905 5.75756 18.2116 6.17675 18.2116 6.69384V19.8013C18.2116 20.3184 17.7905 20.7376 17.2711 20.7376H7.86549C7.34603 20.7376 6.92493 20.3184 6.92493 19.8013V6.69384Z" fill="white"/>
<path d="M13.0367 16.5244C12.777 16.5244 12.5664 16.734 12.5664 16.9926C12.5664 17.2511 12.777 17.4607 13.0367 17.4607H16.7989C17.0586 17.4607 17.2692 17.2511 17.2692 16.9926C17.2692 16.734 17.0586 16.5244 16.7989 16.5244H13.0367Z" fill="white"/>
<path d="M13.0367 10.4395C12.777 10.4395 12.5664 10.649 12.5664 10.9076C12.5664 11.1661 12.777 11.3757 13.0367 11.3757H16.7989C17.0586 11.3757 17.2692 11.1661 17.2692 10.9076C17.2692 10.649 17.0586 10.4395 16.7989 10.4395H13.0367Z" fill="white"/>
<path fill-rule="evenodd" clip-rule="evenodd" d="M7.86523 14.6527C7.86523 14.3942 8.07578 14.1846 8.33551 14.1846H10.6869C10.9466 14.1846 11.1572 14.3942 11.1572 14.6527V16.9934C11.1572 17.2519 10.9466 17.4615 10.6869 17.4615H8.33551C8.07578 17.4615 7.86523 17.2519 7.86523 16.9934V14.6527ZM8.80579 15.1208V16.5253H10.2166V15.1208H8.80579Z" fill="white"/>
<path d="M11.4897 9.36555C11.6734 9.18274 11.6734 8.88632 11.4897 8.70351C11.3061 8.5207 11.0083 8.5207 10.8247 8.70351L9.27607 10.245L8.66805 9.63978C8.4844 9.45698 8.18662 9.45698 8.00298 9.63978C7.81932 9.82259 7.81932 10.119 8.00298 10.3018L9.27607 11.5691L11.4897 9.36555Z" fill="white"/>
<path d="M12.5664 15.1205C12.5664 14.8619 12.777 14.6523 13.0367 14.6523H16.7989C17.0586 14.6523 17.2692 14.8619 17.2692 15.1205C17.2692 15.379 17.0586 15.5886 16.7989 15.5886H13.0367C12.777 15.5886 12.5664 15.379 12.5664 15.1205Z" fill="white"/>
<path d="M12.5664 9.03454C12.5664 8.77599 12.777 8.56641 13.0367 8.56641H16.7989C17.0586 8.56641 17.2692 8.77599 17.2692 9.03454C17.2692 9.29309 17.0586 9.50268 16.7989 9.50268H13.0367C12.777 9.50268 12.5664 9.29309 12.5664 9.03454Z" fill="white"/>
</svg>
