<svg width="64" height="64" viewBox="0 0 64 64" fill="none" xmlns="http://www.w3.org/2000/svg">
<path d="M16.0007 13.3333C17.4735 13.3333 18.6673 12.1394 18.6673 10.6667C18.6673 9.19391 17.4735 8 16.0007 8C15.0136 8 14.1519 8.53627 13.6908 9.33333H13.334C11.1249 9.33333 9.33398 11.1242 9.33398 13.3333V25.3333H12.0007V13.3333C12.0007 12.597 12.5976 12 13.334 12H13.6908C14.1519 12.7971 15.0136 13.3333 16.0007 13.3333Z" fill="#008B96"/>
<path fill-rule="evenodd" clip-rule="evenodd" d="M13.5461 25.3333H11.9992H9.33251C8.59614 25.3333 7.99293 25.9316 8.05975 26.6649C8.36974 30.0665 9.86009 33.2693 12.295 35.7043C14.0805 37.4897 16.2789 38.7673 18.6658 39.444V42.6667C18.6658 44.4085 19.7792 45.8903 21.333 46.4392C21.3898 51.7292 25.6958 56 30.9992 56C36.338 56 40.6658 51.6721 40.6658 46.3333V41C40.6658 38.2385 42.9044 36 45.6658 36C48.4273 36 50.6658 38.2385 50.6658 41V44.2276C49.1122 44.7767 47.9992 46.2584 47.9992 48C47.9992 50.2092 49.79 52 51.9992 52C54.2084 52 55.9992 50.2092 55.9992 48C55.9992 46.2584 54.8861 44.7767 53.3325 44.2276V41C53.3325 36.7659 49.9 33.3333 45.6658 33.3333C41.4317 33.3333 37.9992 36.7659 37.9992 41V46.3333C37.9992 50.1993 34.8652 53.3333 30.9992 53.3333C27.1684 53.3333 24.0564 50.2561 24 46.4388C25.5532 45.8895 26.6658 44.408 26.6658 42.6667V39.444C29.0528 38.7673 31.2513 37.4897 33.0368 35.7043C35.4717 33.2693 36.962 30.0665 37.272 26.6649C37.3389 25.9316 36.7356 25.3333 35.9992 25.3333V13.3333C35.9992 11.1242 34.2084 9.33333 31.9992 9.33333H31.6424C31.1813 8.53627 30.3196 8 29.3325 8C27.8597 8 26.6658 9.19391 26.6658 10.6667C26.6658 12.1394 27.8597 13.3333 29.3325 13.3333C30.3196 13.3333 31.1813 12.7971 31.6424 12H31.9992C32.7356 12 33.3325 12.597 33.3325 13.3333V25.3333H31.7857C31.0493 25.3333 30.464 25.9345 30.3385 26.6603C30.0665 28.2328 29.3154 29.6956 28.1717 30.8392C26.7116 32.2995 24.731 33.1199 22.6658 33.1199C20.6008 33.1199 18.6202 32.2995 17.16 30.8392C16.0164 29.6956 15.2652 28.2328 14.9932 26.6603C14.8677 25.9345 14.2824 25.3333 13.5461 25.3333ZM32.7732 28H34.3658C33.8676 30.1861 32.762 32.2079 31.1512 33.8187C28.9008 36.0691 25.8485 37.3333 22.6658 37.3333C19.4833 37.3333 16.431 36.0691 14.1806 33.8187C12.5698 32.2079 11.4642 30.1861 10.9659 28H12.5586C13.0262 29.7721 13.956 31.4064 15.2744 32.7248C17.2348 34.6852 19.8936 35.7865 22.6658 35.7865C25.4382 35.7865 28.097 34.6852 30.0574 32.7248C31.3758 31.4064 32.3056 29.7721 32.7732 28ZM51.9992 46.6667C52.7356 46.6667 53.3325 47.2636 53.3325 48C53.3325 48.7364 52.7356 49.3333 51.9992 49.3333C51.2628 49.3333 50.6658 48.7364 50.6658 48C50.6658 47.2636 51.2628 46.6667 51.9992 46.6667ZM23.9992 40V42.6667C23.9992 43.4031 23.4022 44 22.6658 44C21.9294 44 21.3325 43.4031 21.3325 42.6667V40H23.9992Z" fill="#008B96"/>
</svg>
