<svg width="65" height="64" viewBox="0 0 65 64" fill="none" xmlns="http://www.w3.org/2000/svg">
<path fill-rule="evenodd" clip-rule="evenodd" d="M9.23237 17.818C8.62046 18.4206 8.62046 19.3974 9.23237 19.9999C9.84428 20.6024 10.8364 20.6024 11.4483 19.9999L12.5569 18.9083L18.096 24.3622L13.6642 28.7259C13.0523 29.3284 13.0523 30.3052 13.6642 30.9078C14.276 31.5103 15.2681 31.5103 15.88 30.9078L18.0955 28.7263L36.9312 47.2727C39.2027 49.5094 42.5223 50.0855 45.3336 49.0008L46.9025 50.5456C47.723 51.3535 48.8851 51.6198 49.9308 51.3444L53.5507 54.9087C54.1625 55.5112 55.1545 55.5112 55.7665 54.9087C56.3784 54.3062 56.3784 53.3294 55.7665 52.7268L52.1461 49.162C52.4249 48.1328 52.1544 46.9894 51.3344 46.1819L49.7656 44.6372C50.8674 41.869 50.2824 38.6002 48.0108 36.3634L29.175 17.817L31.3913 15.6347C32.0033 15.0322 32.0033 14.0554 31.3913 13.4528C30.7795 12.8503 29.7873 12.8503 29.1755 13.4528L24.7436 17.8166L19.2047 12.3627L20.3118 11.2724C20.9238 10.6699 20.9238 9.69306 20.3118 9.09055C19.7 8.48805 18.7079 8.48805 18.096 9.09055L9.23237 17.818ZM22.8285 19.7023L17.2896 14.2483L14.472 17.0226L20.0111 22.4766L22.8285 19.7023ZM27.2599 19.7027L20.0105 26.8407L25.977 32.7155L33.2264 25.5774L27.2599 19.7027ZM28.1928 34.8974L31.5167 38.1702L34.0337 35.6919C34.6457 35.0894 35.6377 35.0894 36.2497 35.6919C36.8616 36.2944 36.8616 37.2712 36.2497 37.8738L33.7327 40.352L35.948 42.5334L38.4652 40.0548C39.0772 39.4523 40.0692 39.4523 40.6812 40.0548C41.293 40.6574 41.293 41.6342 40.6812 42.2367L38.1639 44.7152L38.8463 45.3871C40.3333 46.8512 42.5066 47.2278 44.3467 46.5167L47.2429 43.665C47.9651 41.8531 47.5827 39.7132 46.0957 38.2491L35.4422 27.7592L28.1928 34.8974ZM49.4569 48.1099C49.4455 48.0951 49.4329 48.081 49.4194 48.0676L48.3034 46.9687C48.2091 47.072 48.1116 47.1734 48.0108 47.2727C47.9097 47.3722 47.8067 47.4683 47.7016 47.5612L48.8176 48.66C48.8314 48.6735 48.8459 48.6859 48.8609 48.6972C48.9293 48.5776 49.0153 48.465 49.1187 48.3631C49.2219 48.2616 49.3358 48.1771 49.4569 48.1099Z" fill="#008B96"/>
</svg>
