<svg width="29" height="27" viewBox="0 0 29 27" fill="none" xmlns="http://www.w3.org/2000/svg">
<ellipse cx="14.4492" cy="13.2476" rx="14.4492" ry="13.2476" fill="#008B96"/>
<path fill-rule="evenodd" clip-rule="evenodd" d="M5.8589 7.92956C5.63297 8.15551 5.63297 8.52181 5.8589 8.74776C6.08484 8.97371 6.45115 8.97371 6.67708 8.74776L7.08643 8.33841L9.13163 10.3836L7.49528 12.02C7.26932 12.246 7.26932 12.6123 7.49528 12.8382C7.72118 13.0642 8.08748 13.0642 8.31343 12.8382L9.13143 12.0202L16.0862 18.9751C16.9249 19.8138 18.1506 20.0299 19.1886 19.6231L19.7679 20.2024C20.0708 20.5054 20.4999 20.6052 20.886 20.502L22.2226 21.8386C22.4485 22.0645 22.8148 22.0645 23.0407 21.8386C23.2667 21.6126 23.2667 21.2463 23.0407 21.0204L21.704 19.6836C21.8069 19.2976 21.707 18.8688 21.4043 18.566L20.825 17.9868C21.2318 16.9487 21.0158 15.7229 20.1771 14.8841L13.2223 7.92916L14.0407 7.11081C14.2666 6.88486 14.2666 6.51856 14.0407 6.29261C13.8148 6.06668 13.4484 6.06668 13.2225 6.29261L11.5861 7.92901L9.54098 5.8838L9.94978 5.47496C10.1757 5.24902 10.1757 4.8827 9.94978 4.65676C9.72388 4.43082 9.35758 4.43082 9.13163 4.65676L5.8589 7.92956ZM10.879 8.63616L8.83388 6.59091L7.79353 7.63126L9.83873 9.67651L10.879 8.63616ZM12.5152 8.63631L9.83853 11.3131L12.0415 13.5161L14.7182 10.8393L12.5152 8.63631ZM12.8597 14.3343L14.087 15.5616L15.0163 14.6323C15.2423 14.4063 15.6086 14.4063 15.8345 14.6323C16.0605 14.8582 16.0605 15.2245 15.8345 15.4505L14.9052 16.3798L15.7231 17.1978L16.6526 16.2684C16.8785 16.0424 17.2448 16.0424 17.4708 16.2684C17.6967 16.4943 17.6967 16.8606 17.4708 17.0866L16.5413 18.016L16.7933 18.268C17.3423 18.817 18.1448 18.9582 18.8242 18.6916L19.8936 17.6222C20.1602 16.9427 20.019 16.1403 19.47 15.5912L15.5364 11.6575L12.8597 14.3343ZM20.711 19.289C20.7068 19.2835 20.7022 19.2782 20.6972 19.2732L20.2851 18.8611C20.2503 18.8998 20.2143 18.9378 20.1771 18.9751C20.1398 19.0124 20.1017 19.0484 20.0629 19.0833L20.475 19.4953C20.4801 19.5004 20.4854 19.505 20.491 19.5093C20.5162 19.4644 20.548 19.4222 20.5862 19.384C20.6243 19.3459 20.6663 19.3142 20.711 19.289Z" fill="white"/>
</svg>
