<svg width="64" height="64" viewBox="0 0 64 64" fill="none" xmlns="http://www.w3.org/2000/svg">
<path fill-rule="evenodd" clip-rule="evenodd" d="M38.7092 20.1236C37.5707 19.5756 36.2401 19.1085 34.666 18.6667C36.2401 18.2248 37.5707 17.7577 38.7092 17.2097C41.1381 16.0407 42.6932 14.5033 43.8752 12.0569C44.4249 10.9193 44.8939 9.58512 45.3327 8C45.7715 9.58512 46.2404 10.9193 46.7902 12.0569C47.9722 14.5033 49.5272 16.0407 51.9562 17.2097C53.0947 17.7577 54.4252 18.2248 55.9993 18.6667C54.4252 19.1085 53.0947 19.5756 51.9562 20.1236C49.5272 21.2927 47.9722 22.83 46.7902 25.2764C46.2404 26.414 45.7715 27.7483 45.3327 29.3333C44.8939 27.7483 44.4249 26.414 43.8752 25.2764C42.6932 22.83 41.1381 21.2927 38.7092 20.1236ZM43.6292 20.3192C42.9974 19.692 42.3092 19.1475 41.564 18.6667C42.3092 18.1859 42.9974 17.6413 43.6292 17.0141C44.2762 16.372 44.8375 15.6696 45.3327 14.9048C45.8279 15.6696 46.3892 16.372 47.0361 17.0141C47.668 17.6413 48.3561 18.1859 49.1013 18.6667C48.3561 19.1475 47.668 19.692 47.0361 20.3192C46.3892 20.9613 45.8279 21.6637 45.3327 22.4285C44.8375 21.6637 44.2762 20.9613 43.6292 20.3192Z" fill="#008B96"/>
<path fill-rule="evenodd" clip-rule="evenodd" d="M12.4052 38.7518C11.07 38.2511 9.60759 37.7849 8 37.3337C9.60759 36.8825 11.07 36.4162 12.4052 35.9155C19.1825 33.3741 22.6815 29.9462 25.2487 23.0993C25.7512 21.7591 26.218 20.2881 26.6667 18.667C27.1153 20.2881 27.5821 21.7591 28.0847 23.0993C30.6519 29.9462 34.1508 33.3741 40.9281 35.9155C42.2633 36.4162 43.7257 36.8825 45.3333 37.3337C43.7257 37.7849 42.2633 38.2511 40.9281 38.7518C34.1508 41.2933 30.6519 44.7211 28.0847 51.5681C27.5821 52.9082 27.1153 54.3793 26.6667 56.0003C26.218 54.3793 25.7512 52.9082 25.2487 51.5681C22.6815 44.7211 19.1825 41.2933 12.4052 38.7518ZM22.2765 41.645C20.4859 39.8675 18.3876 38.4859 15.9229 37.3337C18.3876 36.1814 20.4859 34.7998 22.2765 33.0223C24.0828 31.2293 25.4925 29.1166 26.6667 26.6129C27.8408 29.1166 29.2505 31.2293 31.0568 33.0223C32.8475 34.7998 34.9457 36.1814 37.4104 37.3337C34.9457 38.4859 32.8475 39.8675 31.0568 41.645C29.2505 43.4381 27.8408 45.5507 26.6667 48.0545C25.4925 45.5507 24.0828 43.4381 22.2765 41.645Z" fill="#008B96"/>
</svg>
