<svg width="61" height="60" viewBox="0 0 61 60" fill="none" xmlns="http://www.w3.org/2000/svg">
<path d="M30.5007 14.9404C31.9044 14.9404 33.0423 13.8212 33.0423 12.4404C33.0423 11.0597 31.9044 9.94043 30.5007 9.94043C29.0969 9.94043 27.959 11.0597 27.959 12.4404C27.959 13.8212 29.0969 14.9404 30.5007 14.9404Z" fill="#008B96"/>
<path fill-rule="evenodd" clip-rule="evenodd" d="M17.7806 47.5H19.0623V50H21.6047C21.637 51.3531 22.7622 52.4402 24.1456 52.4402H26.6873C28.0707 52.4402 29.1959 51.3531 29.2282 50H34.3011V55H36.8428V50H41.9373V47.5H43.1973C46.0047 47.5 48.2807 45.2615 48.2807 42.5001V12.6429C48.2807 9.88148 46.0047 7.64291 43.1973 7.64291H35.5723L34.1336 6.18746C32.1375 4.16798 28.8403 4.16798 26.8442 6.18746L25.4057 7.64291H17.7806C14.9731 7.64291 12.6973 9.88148 12.6973 12.6429V42.5C12.6973 45.2615 14.9731 47.5 17.7806 47.5ZM35.5723 10.1429C34.8858 10.1429 34.2284 9.86976 33.7499 9.38561L32.3112 7.93016C31.3132 6.92041 29.6646 6.92041 28.6666 7.93015L27.2279 9.38561C26.7494 9.86976 26.0922 10.1429 25.4057 10.1429H17.7806C16.3769 10.1429 15.239 11.2622 15.239 12.6429V36.2137C16.8932 36.1874 18.4574 36.2345 19.9416 36.2882C20.1684 36.2965 20.3928 36.3049 20.6154 36.3132C21.0231 36.3284 21.4245 36.3432 21.8196 36.3566C23.0052 36.3967 24.1395 36.4229 25.2554 36.3995C28.594 36.3296 31.6631 35.8172 34.9265 33.9235C38.8898 31.6235 42.2442 32.3142 44.5632 33.6416C44.9936 33.888 45.3859 34.1544 45.739 34.4236V29.3152H40.6665V26.8152H45.739V23.0652H40.6665V20.5652H45.739V16.8152H40.6665V14.3152H45.739V12.6429C45.739 11.2622 44.601 10.1429 43.1973 10.1429H35.5723ZM17.7806 45C16.3769 45 15.239 43.8807 15.239 42.5V38.7141C16.8336 38.6874 18.3575 38.7325 19.8479 38.7866C20.0711 38.7947 20.294 38.803 20.5165 38.8114C22.1386 38.8719 23.7407 38.9317 25.3094 38.8989C28.9206 38.8234 32.46 38.2575 36.218 36.0766C39.276 34.302 41.6404 34.8611 43.2849 35.8024C44.1385 36.2911 44.8147 36.8971 45.2803 37.3886C45.4738 37.5927 45.6274 37.7734 45.739 37.912V42.5001C45.739 43.8807 44.601 45 43.1973 45H17.7806Z" fill="#008B96"/>
</svg>
