<svg width="29" height="29" viewBox="0 0 29 29" fill="none" xmlns="http://www.w3.org/2000/svg">
<ellipse cx="14.4492" cy="14.3941" rx="14.4492" ry="14.3941" fill="#008B96"/>
<path fill-rule="evenodd" clip-rule="evenodd" d="M12.2043 7.13911L12.247 7.11582C12.6159 6.91481 13.0882 7.03512 13.302 7.38456C13.3315 7.43288 13.3546 7.48306 13.3715 7.53418C14.0107 7.32637 14.7379 7.56906 15.0897 8.14429L17.2568 11.6868C17.6559 12.3393 17.4211 13.1724 16.7323 13.5478L16.3258 13.7693L16.6502 14.3654L15.369 14.986L15.0771 14.4497L14.7574 14.6239C14.0686 14.9992 13.1867 14.7745 12.7876 14.1221L11.4527 11.9399C10.1781 12.6233 9.30233 13.3878 8.83758 14.2651C8.45521 14.9868 8.32957 15.8258 8.54112 16.8331C9.22734 16.4725 10.0165 16.2672 10.8561 16.2672C12.7907 16.2672 14.4574 17.357 15.2141 18.9261L21.0799 17.4489L21.3311 18.3281L15.5243 19.7904C15.6051 20.122 15.6478 20.4675 15.6478 20.8224C15.6478 21.1344 15.6148 21.4391 15.552 21.7335H21.877C22.1416 21.7335 22.3561 21.9374 22.3561 22.189C22.3561 22.4406 22.1416 22.6445 21.877 22.6445L6.46318 22.6446C6.20672 22.0866 6.06445 21.4703 6.06445 20.8224C6.06445 19.458 6.69549 18.2336 7.69526 17.3988C7.33037 16.0652 7.43402 14.889 7.98165 13.8553C8.56187 12.7601 9.60981 11.8837 10.9709 11.1523L10.6205 10.5795C10.3071 10.0673 10.3846 9.44361 10.7657 9.01759C10.7098 8.96878 10.6606 8.91131 10.6205 8.84572C10.4067 8.49629 10.5324 8.05005 10.9014 7.84905L10.9569 7.8188L10.361 6.8023L11.6213 6.14453L12.2043 7.13911ZM16.4254 12.1399L14.2583 8.59735C14.1252 8.37987 13.8313 8.30498 13.6016 8.43006L11.6268 9.50618C11.3971 9.6313 11.3189 9.90901 11.4519 10.1265L13.619 13.669C13.7521 13.8865 14.046 13.9614 14.2756 13.8363L16.2505 12.7602C16.4801 12.6351 16.5584 12.3574 16.4254 12.1399ZM14.6895 20.8224C14.6895 21.1357 14.648 21.439 14.57 21.7279H7.14219C7.06429 21.439 7.02279 21.1357 7.02279 20.8224C7.02279 18.8182 8.73346 17.1839 10.8561 17.1839C12.3469 17.1839 13.6344 17.9899 14.2689 19.1641L11.1938 19.9385L11.445 20.8177L14.5967 20.024C14.6574 20.281 14.6895 20.5483 14.6895 20.8224Z" fill="white"/>
<path d="M18.409 12.4219C18.401 12.7432 18.3212 13.0595 18.1758 13.3488L18.7647 13.6838C18.9918 13.813 19.2803 13.7395 19.4091 13.5198C19.5378 13.3 19.4581 13.0171 19.2311 12.8879L18.442 12.439C18.4311 12.4328 18.4201 12.4271 18.409 12.4219Z" fill="white"/>
<path d="M18.1079 14.4453C17.9918 14.4439 17.8762 14.4372 17.7614 14.4253L17.9444 14.7614L17.0039 15.217C17.359 15.3046 17.7253 15.3518 18.0957 15.3563C19.0243 15.3675 19.9345 15.1098 20.711 14.6171C21.4874 14.1244 22.0947 13.4195 22.4581 12.5928C22.8214 11.7661 22.9251 10.8537 22.7567 9.97025C22.5882 9.08681 22.1547 8.27039 21.5093 7.62479C20.8637 6.97907 20.0348 6.53321 19.1267 6.34551C18.2185 6.15779 17.2737 6.23715 16.4124 6.57307C16.0564 6.71193 15.7214 6.89195 15.4141 7.10784C15.6096 7.26867 15.7808 7.46246 15.918 7.68677L16.0036 7.82661C16.2426 7.66107 16.5017 7.52296 16.7761 7.41595C17.4582 7.14992 18.2052 7.08738 18.9231 7.23576C19.6411 7.38417 20.2996 7.7373 20.8147 8.25246C21.3298 8.76772 21.6781 9.4219 21.8137 10.1328C21.9492 10.8437 21.8656 11.5777 21.5738 12.2415C21.2821 12.9052 20.796 13.4677 20.1789 13.8593C19.5621 14.2507 18.8414 14.4542 18.1079 14.4453Z" fill="white"/>
<path d="M19.7921 10.1505C19.6084 10.3315 19.6084 10.6251 19.7921 10.8061C19.9758 10.9872 20.2738 10.9872 20.4575 10.8061L21.1018 10.1713C21.2855 9.99022 21.2855 9.69671 21.1018 9.51566C20.918 9.33462 20.6201 9.33462 20.4364 9.51566L19.7921 10.1505Z" fill="white"/>
<path d="M17.6356 9.52099C17.8193 9.70203 18.1173 9.70203 18.301 9.52099C18.4848 9.33995 18.4848 9.04639 18.301 8.86535L17.6567 8.23051C17.473 8.04947 17.175 8.04947 16.9913 8.23051C16.8076 8.41155 16.8076 8.70511 16.9913 8.88615L17.6356 9.52099Z" fill="white"/>
<path d="M19.0732 10.9665C19.0732 10.7186 18.8693 10.5176 18.6177 10.5176C18.3661 10.5176 18.1621 10.7186 18.1621 10.9665C18.1621 11.2144 18.3661 11.4154 18.6177 11.4154C18.8693 11.4154 19.0732 11.2144 19.0732 10.9665Z" fill="white"/>
<path d="M19.96 8.74479C19.96 8.49688 19.756 8.2959 19.5044 8.2959C19.2528 8.2959 19.0488 8.49688 19.0488 8.74479C19.0488 8.9927 19.2528 9.19368 19.5044 9.19368C19.756 9.19368 19.96 8.9927 19.96 8.74479Z" fill="white"/>
<path d="M20.4365 12.1608C20.4365 11.9129 20.2326 11.7119 19.981 11.7119C19.7294 11.7119 19.5254 11.9129 19.5254 12.1608C19.5254 12.4087 19.7294 12.6097 19.981 12.6097C20.2326 12.6097 20.4365 12.4087 20.4365 12.1608Z" fill="white"/>
</svg>
