<svg width="29" height="27" viewBox="0 0 29 27" fill="none" xmlns="http://www.w3.org/2000/svg">
<path d="M28.8984 13.2476C28.8984 20.564 22.4293 26.4951 14.4492 26.4951C6.46914 26.4951 0 20.564 0 13.2476C0 5.93113 6.46914 0 14.4492 0C22.4293 0 28.8984 5.93113 28.8984 13.2476Z" fill="#008B96"/>
<path fill-rule="evenodd" clip-rule="evenodd" d="M9.48425 20.5313H9.98501V21.5622H10.9784C10.991 22.1202 11.4307 22.5685 11.9712 22.5685H12.9643C13.5048 22.5685 13.9445 22.1202 13.9571 21.5622H15.9392V23.624H16.9323V21.5622H18.9228V20.5313H19.4151C20.5121 20.5313 21.4013 19.6082 21.4013 18.4696V6.15762C21.4013 5.01893 20.5121 4.09583 19.4151 4.09583H16.4359L15.8737 3.49566C15.0938 2.66291 13.8055 2.66291 13.0256 3.49566L12.4635 4.09583H9.48425C8.38728 4.09583 7.49805 5.01893 7.49805 6.15762V18.4695C7.49805 19.6083 8.38728 20.5313 9.48425 20.5313ZM16.4359 5.12673C16.1676 5.12673 15.9108 5.01409 15.7238 4.81445L15.1617 4.21428C14.7718 3.7979 14.1276 3.7979 13.7377 4.21427L13.1755 4.81445C12.9886 5.01409 12.7318 5.12673 12.4635 5.12673H9.48425C8.93576 5.12673 8.49116 5.58828 8.49116 6.15762V15.8773C9.13751 15.8664 9.74866 15.8859 10.3286 15.908C10.4172 15.9114 10.5049 15.9149 10.5918 15.9183C10.7511 15.9246 10.908 15.9307 11.0624 15.9362C11.5256 15.9528 11.9688 15.9635 12.4048 15.9539C13.7093 15.9251 14.9085 15.7138 16.1835 14.9329C17.7321 13.9845 19.0427 14.2693 19.9488 14.8167C20.117 14.9183 20.2703 15.0281 20.4082 15.1391V13.0326H18.4263V12.0017H20.4082V10.4554H18.4263V9.42449H20.4082V7.87814H18.4263V6.84724H20.4082V6.15762C20.4082 5.58828 19.9636 5.12673 19.4151 5.12673H16.4359ZM9.48425 19.5004C8.93576 19.5004 8.49116 19.0389 8.49116 18.4695V16.9084C9.11422 16.8973 9.70963 16.9159 10.292 16.9383C10.3792 16.9416 10.4663 16.945 10.5532 16.9485C11.187 16.9734 11.813 16.9981 12.4259 16.9846C13.8369 16.9534 15.2198 16.7201 16.6882 15.8208C17.883 15.089 18.8068 15.3195 19.4494 15.7077C19.7829 15.9092 20.0471 16.1591 20.229 16.3618C20.3046 16.446 20.3646 16.5204 20.4082 16.5776V18.4696C20.4082 19.0389 19.9636 19.5004 19.4151 19.5004H9.48425Z" fill="white"/>
<path d="M14.456 7.10478C15.0045 7.10478 15.4491 6.64324 15.4491 6.07387C15.4491 5.50452 15.0045 5.04297 14.456 5.04297C13.9075 5.04297 13.4629 5.50452 13.4629 6.07387C13.4629 6.64324 13.9075 7.10478 14.456 7.10478Z" fill="white"/>
</svg>
