<svg width="29" height="27" viewBox="0 0 29 27" fill="none" xmlns="http://www.w3.org/2000/svg">
<path d="M28.8984 13.2476C28.8984 20.564 22.4293 26.4951 14.4492 26.4951C6.46914 26.4951 0 20.564 0 13.2476C0 5.93113 6.46914 0 14.4492 0C22.4293 0 28.8984 5.93113 28.8984 13.2476Z" fill="#008B96"/>
<path fill-rule="evenodd" clip-rule="evenodd" d="M6.08862 16.1333C5.51891 15.9193 4.89492 15.72 4.20898 15.5272C4.89492 15.3343 5.51891 15.1351 6.08862 14.9211C8.98045 13.8348 10.4734 12.3697 11.5688 9.44323C11.7832 8.87044 11.9824 8.24169 12.1738 7.54883C12.3653 8.24169 12.5645 8.87044 12.7789 9.44323C13.8743 12.3697 15.3672 13.8348 18.2591 14.9211C18.8288 15.1351 19.4528 15.3343 20.1387 15.5272C19.4528 15.72 18.8288 15.9193 18.2591 16.1333C15.3672 17.2196 13.8743 18.6847 12.7789 21.6112C12.5645 22.1839 12.3653 22.8127 12.1738 23.5056C11.9824 22.8127 11.7832 22.1839 11.5688 21.6112C10.4734 18.6847 8.98045 17.2196 6.08862 16.1333ZM10.3006 17.3699C9.53657 16.6102 8.64126 16.0197 7.58961 15.5272C8.64126 15.0347 9.53657 14.4442 10.3006 13.6845C11.0713 12.9181 11.6729 12.0151 12.1738 10.945C12.6748 12.0151 13.2764 12.9181 14.0471 13.6845C14.8111 14.4442 15.7064 15.0347 16.7581 15.5272C15.7064 16.0197 14.8111 16.6102 14.0471 17.3699C13.2764 18.1363 12.6748 19.0393 12.1738 20.1094C11.6729 19.0393 11.0713 18.1363 10.3006 17.3699Z" fill="white"/>
<path fill-rule="evenodd" clip-rule="evenodd" d="M17.3111 8.17201C16.8253 7.93779 16.2576 7.73816 15.5859 7.5493C16.2576 7.36044 16.8253 7.16081 17.3111 6.92659C18.3475 6.42692 19.0111 5.76984 19.5154 4.72422C19.75 4.23798 19.9501 3.66773 20.1373 2.99023C20.3245 3.66773 20.5246 4.23798 20.7592 4.72422C21.2635 5.76984 21.9271 6.42692 22.9635 6.92659C23.4493 7.16081 24.017 7.36044 24.6886 7.5493C24.017 7.73816 23.4493 7.93779 22.9635 8.17201C21.9271 8.67169 21.2635 9.32876 20.7592 10.3744C20.5246 10.8606 20.3245 11.4309 20.1373 12.1084C19.9501 11.4309 19.75 10.8606 19.5154 10.3744C19.0111 9.32876 18.3475 8.67169 17.3111 8.17201ZM19.4104 8.25562C19.1408 7.98754 18.8472 7.7548 18.5292 7.5493C18.8472 7.3438 19.1408 7.11106 19.4104 6.84299C19.6865 6.56853 19.926 6.26832 20.1373 5.94143C20.3486 6.26832 20.5881 6.56853 20.8641 6.84299C21.1338 7.11106 21.4274 7.3438 21.7453 7.5493C21.4274 7.7548 21.1338 7.98754 20.8641 8.25562C20.5881 8.53007 20.3486 8.83029 20.1373 9.15717C19.926 8.83029 19.6865 8.53007 19.4104 8.25562Z" fill="white"/>
</svg>
