<svg width="29" height="27" viewBox="0 0 29 27" fill="none" xmlns="http://www.w3.org/2000/svg">
<ellipse cx="14.4492" cy="13.2476" rx="14.4492" ry="13.2476" fill="#008B96"/>
<path d="M10.1807 16.9462C10.0954 16.6828 9.8133 16.5387 9.5507 16.6243C9.28805 16.7099 9.14435 16.9928 9.2297 17.2562C9.6049 18.4144 10.3361 19.4238 11.3185 20.1397C12.3008 20.8555 13.4839 21.2411 14.6982 21.2411C14.9744 21.2411 15.1982 21.0166 15.1982 20.7396C15.1982 20.4627 14.9744 20.2381 14.6982 20.2381C13.6951 20.2381 12.7178 19.9196 11.9062 19.3283C11.0947 18.7369 10.4907 17.9031 10.1807 16.9462Z" fill="white"/>
<path fill-rule="evenodd" clip-rule="evenodd" d="M14.4492 3.24805L14.1041 3.57814L14.1023 3.57994L14.0979 3.58417L14.0816 3.59987C14.0676 3.61351 14.047 3.63349 14.0205 3.65955C13.9675 3.71168 13.8905 3.78818 13.7929 3.88717C13.5977 4.08512 13.3201 4.37318 12.9874 4.7362C12.3225 5.46165 11.4352 6.48935 10.5468 7.6978C8.78997 10.0874 6.94922 13.2884 6.94922 16.2881C6.94922 20.1705 10.3472 23.248 14.4492 23.248C18.5512 23.248 21.9492 20.1705 21.9492 16.2881C21.9492 13.2884 20.1085 10.0874 18.3517 7.6978C17.4633 6.48935 16.576 5.46165 15.9111 4.7362C15.5784 4.37318 15.3007 4.08512 15.1055 3.88717C15.0079 3.78818 14.9309 3.71168 14.8779 3.65955C14.8514 3.63349 14.8309 3.61351 14.8168 3.59987L14.8006 3.58417L14.7962 3.57994L14.4492 3.24805ZM13.7236 5.41495C14.0169 5.09492 14.2655 4.83556 14.4492 4.6481C14.6329 4.83556 14.8816 5.09492 15.1749 5.41495C15.8225 6.12157 16.6852 7.12105 17.5468 8.293C19.29 10.6641 20.9492 13.6366 20.9492 16.2881C20.9492 19.5394 18.0792 22.2451 14.4492 22.2451C10.8193 22.2451 7.94922 19.5394 7.94922 16.2881C7.94922 13.6366 9.60847 10.6641 11.3517 8.293C12.2133 7.12105 13.076 6.12157 13.7236 5.41495Z" fill="white"/>
</svg>
