<svg width="64" height="64" viewBox="0 0 64 64" fill="none" xmlns="http://www.w3.org/2000/svg">
<path d="M26.666 20.0003C26.666 19.2639 27.2629 18.667 27.9993 18.667H38.666C39.4024 18.667 39.9993 19.2639 39.9993 20.0003C39.9993 20.7367 39.4024 21.3337 38.666 21.3337H27.9993C27.2629 21.3337 26.666 20.7367 26.666 20.0003Z" fill="#008B96"/>
<path d="M27.9993 24C27.2629 24 26.666 24.5969 26.666 25.3333C26.666 26.0697 27.2629 26.6667 27.9993 26.6667H38.666C39.4024 26.6667 39.9993 26.0697 39.9993 25.3333C39.9993 24.5969 39.4024 24 38.666 24H27.9993Z" fill="#008B96"/>
<path d="M26.666 37.3333C26.666 36.5969 27.2629 36 27.9993 36H38.666C39.4024 36 39.9993 36.5969 39.9993 37.3333C39.9993 38.0697 39.4024 38.6667 38.666 38.6667H27.9993C27.2629 38.6667 26.666 38.0697 26.666 37.3333Z" fill="#008B96"/>
<path d="M27.9993 41.333C27.2629 41.333 26.666 41.9299 26.666 42.6663C26.666 43.4027 27.2629 43.9997 27.9993 43.9997H38.666C39.4024 43.9997 39.9993 43.4027 39.9993 42.6663C39.9993 41.9299 39.4024 41.333 38.666 41.333H27.9993Z" fill="#008B96"/>
<path fill-rule="evenodd" clip-rule="evenodd" d="M13.334 36.0003C13.334 35.2639 13.9309 34.667 14.6673 34.667H21.334C22.0704 34.667 22.6673 35.2639 22.6673 36.0003V42.667C22.6673 43.4034 22.0704 44.0003 21.334 44.0003H14.6673C13.9309 44.0003 13.334 43.4034 13.334 42.667V36.0003ZM16.0007 37.3337V41.3337H20.0007V37.3337H16.0007Z" fill="#008B96"/>
<path d="M23.6101 20.9431C24.1308 20.4224 24.1308 19.5782 23.6101 19.0575C23.0894 18.5368 22.2452 18.5368 21.7245 19.0575L17.334 23.448L15.6101 21.7242C15.0894 21.2035 14.2452 21.2035 13.7245 21.7242C13.2038 22.2448 13.2038 23.0891 13.7245 23.6098L17.334 27.2192L23.6101 20.9431Z" fill="#008B96"/>
<path fill-rule="evenodd" clip-rule="evenodd" d="M13.3333 8C10.3878 8 8 10.3878 8 13.3333V50.6656C8 53.6112 10.3878 55.9989 13.3333 55.9989H40C42.9455 55.9989 45.3333 53.6112 45.3333 50.6656V13.3333C45.3333 10.3878 42.9455 8 40 8H13.3333ZM10.6667 13.3333C10.6667 11.8606 11.8606 10.6667 13.3333 10.6667H40C41.4728 10.6667 42.6667 11.8606 42.6667 13.3333V50.6656C42.6667 52.1384 41.4728 53.3323 40 53.3323H13.3333C11.8606 53.3323 10.6667 52.1384 10.6667 50.6656V13.3333Z" fill="#008B96"/>
<path fill-rule="evenodd" clip-rule="evenodd" d="M48 21.333C48 19.1238 49.7908 17.333 52 17.333C54.2092 17.333 56 19.1238 56 21.333V48.4034L52 54.4034L48 48.4034V21.333ZM52 19.9997C51.2636 19.9997 50.6667 20.5966 50.6667 21.333V23.9997H53.3333V21.333C53.3333 20.5966 52.7364 19.9997 52 19.9997ZM52 49.5959L50.6667 47.5959V26.6663H53.3333V47.5959L52 49.5959Z" fill="#008B96"/>
</svg>
