<svg width="61" height="60" viewBox="0 0 61 60" fill="none" xmlns="http://www.w3.org/2000/svg">
<path fill-rule="evenodd" clip-rule="evenodd" d="M41.0008 10.4455C41.0388 10.4901 41.0747 10.5387 41.1061 10.588L41.1076 10.5904L41.1111 10.5959L41.1228 10.6144L41.1642 10.6812C41.1998 10.7388 41.2506 10.822 41.3145 10.9289C41.4425 11.1427 41.6232 11.4518 41.839 11.8405C42.27 12.617 42.844 13.7161 43.4185 15.0125C44.554 17.5741 45.75 21.0334 45.75 24.3291C45.75 28.0577 43.1888 30.125 40.9374 31.193C39.8034 31.7309 38.6838 32.0527 37.8567 32.2406C37.6971 32.2769 37.5474 32.3084 37.4095 32.3356C35.5958 33.9891 33.1679 34.9999 30.5 34.9999C27.2811 34.9999 24.4117 33.5286 22.5489 31.2324L22.4894 31.2274C22.286 31.2095 22.0027 31.1776 21.6657 31.1202C20.9977 31.0067 20.0872 30.7882 19.1605 30.363C18.2332 29.9372 17.2479 29.2847 16.493 28.2837C15.7263 27.2672 15.25 25.96 15.25 24.3291C15.25 21.2454 16.7775 17.7407 18.1799 15.1385C18.8964 13.8089 19.6114 12.6591 20.1473 11.8417C20.4156 11.4323 20.6399 11.1049 20.7982 10.8781C20.8775 10.7647 20.9403 10.6764 20.9839 10.6156L21.0249 10.5587L21.04 10.5352C21.0674 10.4932 21.1045 10.4379 21.1519 10.3713C21.2468 10.2382 21.3833 10.0594 21.5654 9.85044C21.9295 9.43277 22.4781 8.89215 23.2428 8.3567C24.7853 7.27652 27.1619 6.25 30.5695 6.25C33.9691 6.25 36.5577 7.27085 38.3018 8.30426C39.1717 8.81967 39.8313 9.33792 40.2798 9.73432C40.5044 9.93274 40.6767 10.1013 40.7968 10.2249C40.8569 10.2867 40.9041 10.3373 40.9381 10.3748C40.9551 10.3936 40.969 10.4091 40.9795 10.4211L40.993 10.4365L40.9978 10.4422L40.9999 10.4445L41.0008 10.4455ZM23.1766 11.8897C23.1574 11.9213 23.1368 11.9521 23.1148 11.982L23.1126 11.985L23.1027 11.9986L23.0605 12.0571C23.0227 12.1099 22.9659 12.1896 22.893 12.294C22.7472 12.5027 22.5367 12.8097 22.2834 13.1962C21.776 13.9705 21.1 15.0576 20.4256 16.3092C19.046 18.8694 17.7917 21.9044 17.7917 24.3291C17.7917 25.4524 18.1096 26.2311 18.5343 26.7944C18.9709 27.3731 19.5741 27.794 20.2354 28.0975C20.5494 28.2416 20.8671 28.3549 21.17 28.4436C20.97 27.5435 20.7532 26.3967 20.6249 25.1941C20.4814 23.8511 20.4393 22.3624 20.696 21.0469C20.9479 19.7559 21.5438 18.3697 22.9093 17.6486C24.7252 16.6899 27.7981 15.4079 30.5075 14.5234C31.8588 14.0822 33.176 13.7212 34.2296 13.5569C34.7476 13.4761 35.2777 13.4301 35.7455 13.4774C36.1126 13.5145 36.8703 13.651 37.2904 14.3265C40.6969 19.1634 40.7466 23.5946 39.8838 26.8319C39.6346 27.7669 39.3115 28.5959 38.9785 29.3017C39.26 29.1965 39.5473 29.0769 39.8333 28.9412C41.6757 28.0671 43.2083 26.6739 43.2083 24.3291C43.2083 21.5514 42.1788 18.471 41.0887 16.0115C40.5505 14.7972 40.0117 13.7655 39.6082 13.0386C39.4066 12.6756 39.2396 12.3899 39.1241 12.1969C39.0738 12.1128 39.0333 12.0463 39.004 11.9988L38.974 11.9674L38.9599 11.9528C38.8808 11.8713 38.7542 11.7469 38.581 11.5938C38.2339 11.2871 37.7027 10.8678 36.9903 10.4457C35.57 9.60415 33.4294 8.75 30.5695 8.75C27.7179 8.75 25.8519 9.59847 24.7169 10.3933C24.1428 10.7953 23.7439 11.1922 23.495 11.4777C23.3708 11.6203 23.2845 11.7344 23.2331 11.8064C23.2076 11.8423 23.1907 11.8676 23.1823 11.8806L23.1766 11.8897ZM41.1061 10.588C41.1059 10.5878 41.1057 10.5875 40.0281 11.25L41.1061 10.588ZM40.0281 11.25L41.0008 10.4455C41.0012 10.446 41.0015 10.4465 40.0281 11.25ZM23.8188 28.6172C23.7885 28.494 23.7567 28.3617 23.724 28.2214C23.5188 27.3399 23.2834 26.1581 23.1525 24.933C23.0201 23.693 23.0037 22.484 23.1922 21.518C23.3854 20.5275 23.7384 20.0484 24.1115 19.8514C25.773 18.974 28.7066 17.7454 31.3081 16.8961C32.6123 16.4704 33.7767 16.1587 34.6277 16.026C34.9496 15.9759 35.1856 15.958 35.3456 15.9582C38.1385 20.0439 38.1096 23.63 37.4253 26.1979C37.071 27.5271 36.5342 28.603 36.087 29.3442C35.8641 29.7137 35.6654 29.9966 35.5267 30.1824C35.4574 30.2751 35.4033 30.3434 35.3688 30.3857C35.3655 30.3897 35.3625 30.3934 35.3597 30.397C35.3471 30.4121 35.3379 30.423 35.3325 30.4295L35.328 30.4349L35.3266 30.4365C35.1769 30.6082 35.081 30.812 35.0413 31.0251C33.7728 31.9517 32.2015 32.4999 30.5 32.4999C27.6223 32.4999 25.117 30.932 23.8188 28.6172ZM35.5577 15.9761C35.5566 15.9767 35.5448 15.975 35.525 15.9691C35.5488 15.9726 35.5587 15.9756 35.5577 15.9761Z" fill="#008B96"/>
<path fill-rule="evenodd" clip-rule="evenodd" d="M22.7658 36.0689C22.4969 35.5414 22.165 34.8901 21.6042 35.0158C14.7363 36.5543 7.625 40.9933 7.625 45.7124V52.5H53.375V45.7124C53.375 41.9953 48.9628 38.4519 43.7328 36.3629L43.7158 36.3283L43.7096 36.316L43.6672 36.3368C42.2776 35.7856 40.8314 35.3374 39.3958 35.0158C38.7569 34.8726 38.0964 35.7378 37.8064 36.2796H32.6415C31.5145 36.2799 30.9395 36.2798 30.3757 36.2796H30.3436C29.7676 36.2795 29.1917 36.2794 28.0395 36.2796H22.875C22.8395 36.2134 22.8033 36.1424 22.7658 36.0689ZM39.9079 37.72C40.4631 37.8706 41.016 38.0406 41.5617 38.2283C41.5767 38.6558 41.5439 39.1605 41.4726 39.6749C41.4006 40.1946 41.2934 40.6933 41.1742 41.0953C41.1581 41.1496 41.1421 41.2011 41.1262 41.25H39.3958C38.9144 41.25 38.4745 41.5175 38.2592 41.941L36.9884 44.441C36.9 44.6145 36.8542 44.806 36.8542 45V47.5C36.8542 48.1904 37.4231 48.75 38.125 48.75H40.6667V46.25H39.3958V45.2951L40.1812 43.75H43.6938L44.4792 45.2951V46.25H43.2083V48.75H45.75C46.4519 48.75 47.0208 48.1904 47.0208 47.5V45C47.0208 44.806 46.975 44.6145 46.8866 44.441L45.6158 41.941C45.4005 41.5175 44.9606 41.25 44.4792 41.25H43.7594C43.8534 40.8564 43.9323 40.4356 43.9909 40.0126C44.0261 39.7589 44.0547 39.4993 44.0748 39.2394C45.3137 39.8155 46.466 40.4756 47.4627 41.1909C49.906 42.9443 50.8333 44.5836 50.8333 45.7124V50H10.1667V45.7124C10.1667 44.5836 11.094 42.9443 13.5373 41.1909C14.7652 40.3098 16.2292 39.5123 17.8007 38.8524C17.8171 39.2395 17.855 39.6328 17.9077 40.0126C17.9945 40.6386 18.1256 41.2599 18.2844 41.7952L18.2949 41.8305C17.2287 42.4953 16.5208 43.6664 16.5208 45C16.5208 47.0711 18.2277 48.75 20.3333 48.75C22.439 48.75 24.1458 47.0711 24.1458 45C24.1458 43.0779 22.6756 41.4935 20.7808 41.2755C20.7622 41.2193 20.7433 41.1591 20.7244 41.0953C20.6052 40.6933 20.498 40.1946 20.426 39.6749C20.3538 39.1535 20.321 38.6421 20.3375 38.2109C20.3415 38.1066 20.3481 38.0136 20.3565 37.9313C20.509 37.8851 20.6617 37.8403 20.8147 37.7969L21.3407 38.7796H28.0402C29.218 38.7794 29.7852 38.7795 30.3597 38.7796C30.921 38.7798 31.4893 38.7799 32.6415 38.7796H39.3407L39.9079 37.72ZM20.3333 46.2684C21.0176 46.2684 21.6042 45.7178 21.6042 45C21.6042 44.2823 21.0176 43.7316 20.3333 43.7316C19.6491 43.7316 19.0625 44.2823 19.0625 45C19.0625 45.7178 19.6491 46.2684 20.3333 46.2684Z" fill="#008B96"/>
</svg>
