<svg width="29" height="27" viewBox="0 0 29 27" fill="none" xmlns="http://www.w3.org/2000/svg">
<ellipse cx="14.4492" cy="13.2476" rx="14.4492" ry="13.2476" fill="#008B96"/>
<path fill-rule="evenodd" clip-rule="evenodd" d="M16.5142 16.639C17.3703 16.639 18.0636 15.9886 18.0636 15.1857C18.0636 14.3828 17.3703 13.7324 16.5142 13.7324C15.6582 13.7324 14.9648 14.3828 14.9648 15.1857C14.9648 15.9886 15.6582 16.639 16.5142 16.639ZM16.5142 15.6701C16.7998 15.6701 17.0307 15.4535 17.0307 15.1857C17.0307 14.9179 16.7998 14.7013 16.5142 14.7013C16.2287 14.7013 15.9978 14.9179 15.9978 15.1857C15.9978 15.4535 16.2287 15.6701 16.5142 15.6701Z" fill="white"/>
<path d="M9.80078 9.3731C9.80078 9.10555 10.032 8.88867 10.3172 8.88867H18.3224C18.6076 8.88867 18.8389 9.10555 18.8389 9.3731C18.8389 9.64064 18.6076 9.85752 18.3224 9.85752H10.3172C10.032 9.85752 9.80078 9.64064 9.80078 9.3731Z" fill="white"/>
<path fill-rule="evenodd" clip-rule="evenodd" d="M13.416 18.6644C13.416 17.6394 15.4806 17.123 16.5148 17.123C17.549 17.123 19.6136 17.6394 19.6136 18.6644V20.514H13.416V18.6644ZM14.4773 18.6835C14.4647 18.6951 14.4555 18.7044 14.4489 18.7116V19.5452H18.5806V18.7116C18.5741 18.7044 18.5649 18.6951 18.5523 18.6835C18.4677 18.6059 18.3042 18.5031 18.0481 18.4011C17.5316 18.1952 16.8945 18.0919 16.5148 18.0919C16.1351 18.0919 15.4979 18.1952 14.9815 18.4011C14.7254 18.5031 14.5618 18.6059 14.4773 18.6835Z" fill="white"/>
<path fill-rule="evenodd" clip-rule="evenodd" d="M10.834 5.01187C10.834 4.20925 11.5276 3.55859 12.3834 3.55859H16.5151C17.3708 3.55859 18.0645 4.20925 18.0645 5.01187H20.1303C20.986 5.01187 21.6797 5.66251 21.6797 6.46514V21.4823C21.6797 22.2849 20.986 22.9355 20.1303 22.9355H8.76814C7.91241 22.9355 7.21875 22.2849 7.21875 21.4823V6.46514C7.21875 5.66252 7.91241 5.01187 8.76814 5.01187H10.834ZM16.5151 7.43398C17.3708 7.43398 18.0645 6.78335 18.0645 5.98071H20.1303C20.4155 5.98071 20.6468 6.1976 20.6468 6.46514V21.4823C20.6468 21.7498 20.4155 21.9667 20.1303 21.9667H8.76814C8.48289 21.9667 8.25167 21.7498 8.25167 21.4823V6.46514C8.25167 6.1976 8.48289 5.98071 8.76814 5.98071H10.834C10.834 6.78335 11.5276 7.43398 12.3834 7.43398H16.5151ZM12.3834 4.52744C12.0981 4.52744 11.8669 4.74433 11.8669 5.01187V5.98071C11.8669 6.24825 12.0981 6.46514 12.3834 6.46514H16.5151C16.8003 6.46514 17.0315 6.24825 17.0315 5.98071V5.01187C17.0315 4.74433 16.8003 4.52744 16.5151 4.52744H12.3834Z" fill="white"/>
<path fill-rule="evenodd" clip-rule="evenodd" d="M9.80078 15.1856C9.80078 14.918 10.032 14.7012 10.3172 14.7012H12.3831C12.6683 14.7012 12.8996 14.918 12.8996 15.1856V17.1233C12.8996 17.3908 12.6683 17.6077 12.3831 17.6077H10.3172C10.032 17.6077 9.80078 17.3908 9.80078 17.1233V15.1856ZM10.8337 16.6389V15.67H11.8666V16.6389H10.8337Z" fill="white"/>
<path d="M10.3172 11.3105C10.032 11.3105 9.80078 11.5274 9.80078 11.795C9.80078 12.0625 10.032 12.2794 10.3172 12.2794H13.9325C14.2177 12.2794 14.4489 12.0625 14.4489 11.795C14.4489 11.5274 14.2177 11.3105 13.9325 11.3105H10.3172Z" fill="white"/>
</svg>
