<svg width="29" height="27" viewBox="0 0 29 27" fill="none" xmlns="http://www.w3.org/2000/svg">
<path d="M28.8984 13.2476C28.8984 20.564 22.4293 26.4951 14.4492 26.4951C6.46914 26.4951 0 20.564 0 13.2476C0 5.93113 6.46914 0 14.4492 0C22.4293 0 28.8984 5.93113 28.8984 13.2476Z" fill="#008B96"/>
<path fill-rule="evenodd" clip-rule="evenodd" d="M9.43693 10.8436H8.86599H7.88178C7.61 10.8436 7.38736 11.0593 7.41203 11.3237C7.52644 12.55 8.07649 13.7047 8.97517 14.5825C9.63416 15.2262 10.4455 15.6868 11.3265 15.9307V17.0926C11.3265 17.7205 11.7374 18.2547 12.3109 18.4526C12.3319 20.3597 13.9211 21.8994 15.8785 21.8994C17.8489 21.8994 19.4463 20.3392 19.4463 18.4144V16.4917C19.4463 15.4962 20.2725 14.6891 21.2917 14.6891C22.3109 14.6891 23.137 15.4962 23.137 16.4917V17.6553C22.5636 17.8532 22.1528 18.3874 22.1528 19.0153C22.1528 19.8117 22.8138 20.4574 23.6292 20.4574C24.4445 20.4574 25.1055 19.8117 25.1055 19.0153C25.1055 18.3874 24.6947 17.8532 24.1213 17.6553V16.4917C24.1213 14.9652 22.8544 13.7278 21.2917 13.7278C19.7289 13.7278 18.462 14.9652 18.462 16.4917V18.4144C18.462 19.8082 17.3053 20.938 15.8785 20.938C14.4646 20.938 13.316 19.8287 13.2952 18.4525C13.8685 18.2544 14.2791 17.7203 14.2791 17.0926V15.9307C15.1601 15.6868 15.9715 15.2262 16.6305 14.5825C17.5292 13.7047 18.0792 12.55 18.1936 11.3237C18.2184 11.0593 17.9957 10.8436 17.7239 10.8436V6.51747C17.7239 5.72105 17.0629 5.07541 16.2476 5.07541H16.1159C15.9457 4.78806 15.6277 4.59473 15.2634 4.59473C14.7198 4.59473 14.2791 5.02515 14.2791 5.5561C14.2791 6.08705 14.7198 6.51747 15.2634 6.51747C15.6277 6.51747 15.9457 6.32414 16.1159 6.03678H16.2476C16.5194 6.03678 16.7397 6.252 16.7397 6.51747V10.8436H16.1688C15.897 10.8436 15.681 11.0604 15.6347 11.322C15.5343 11.8889 15.2571 12.4163 14.8349 12.8286C14.296 13.355 13.5651 13.6508 12.8028 13.6508C12.0407 13.6508 11.3097 13.355 10.7707 12.8286C10.3487 12.4163 10.0714 11.8889 9.97101 11.322C9.9247 11.0604 9.70867 10.8436 9.43693 10.8436ZM16.5332 11.805H17.1211C16.9372 12.5931 16.5291 13.322 15.9346 13.9027C15.104 14.714 13.9775 15.1698 12.8028 15.1698C11.6282 15.1698 10.5017 14.714 9.67112 13.9027C9.07659 13.322 8.66854 12.5931 8.48461 11.805H9.07244C9.24503 12.4439 9.5882 13.0331 10.0748 13.5084C10.7983 14.2151 11.7796 14.6122 12.8028 14.6122C13.8261 14.6122 14.8074 14.2151 15.5309 13.5084C16.0175 13.0331 16.3607 12.4439 16.5332 11.805ZM23.6292 18.5346C23.9009 18.5346 24.1213 18.7498 24.1213 19.0153C24.1213 19.2808 23.9009 19.496 23.6292 19.496C23.3574 19.496 23.137 19.2808 23.137 19.0153C23.137 18.7498 23.3574 18.5346 23.6292 18.5346ZM13.2949 16.1312V17.0926C13.2949 17.358 13.0746 17.5732 12.8028 17.5732C12.531 17.5732 12.3107 17.358 12.3107 17.0926V16.1312H13.2949Z" fill="white"/>
<path d="M10.3433 6.51747C10.8869 6.51747 11.3276 6.08705 11.3276 5.5561C11.3276 5.02515 10.8869 4.59473 10.3433 4.59473C9.97903 4.59473 9.66099 4.78806 9.49082 5.07541H9.35913C8.54378 5.07541 7.88281 5.72105 7.88281 6.51747V10.8436H8.86702V6.51747C8.86702 6.252 9.08735 6.03678 9.35913 6.03678H9.49082C9.66099 6.32414 9.97903 6.51747 10.3433 6.51747Z" fill="white"/>
</svg>
