<svg width="47" height="48" viewBox="0 0 47 48" fill="none" xmlns="http://www.w3.org/2000/svg">
<path fill-rule="evenodd" clip-rule="evenodd" d="M21.7857 11.0366L21.7802 11.0415C21.7763 10.9757 21.7725 10.9061 21.7684 10.8321L21.7607 10.6909C21.7277 10.0989 21.6768 9.20306 21.3043 8.49527C21.1021 8.11086 20.7883 7.74418 20.3112 7.51234C19.8397 7.28317 19.3003 7.23038 18.7247 7.30783C18.2144 7.37651 17.7618 7.57738 17.4044 7.91564C17.0542 8.24722 16.8462 8.66257 16.7318 9.08664C16.5096 9.9096 16.6039 10.8929 16.8335 11.8396C17.2976 13.7533 18.4263 15.9608 19.6954 17.4624C20.1837 18.0401 20.3336 18.9107 20.3336 19.2857V21.2604L22.1669 21.7084V20.5303C22.9759 20.2365 23.5225 20.1021 24.035 20.0918C24.5317 20.0819 25.062 20.1886 25.8336 20.5001V21.7084L27.6669 21.2604V19.2857C27.6669 18.9107 27.8168 18.0401 28.3051 17.4624C29.5657 15.9708 30.7507 13.7732 31.2746 11.8652C31.5332 10.9234 31.6627 9.94053 31.4686 9.11459C31.3684 8.68797 31.1724 8.26483 30.825 7.92548C30.4702 7.5789 30.0154 7.37662 29.5043 7.30783C28.9288 7.23038 28.3894 7.28317 27.9178 7.51234C27.4408 7.74418 27.127 8.11086 26.9247 8.49527C26.5523 9.20306 26.5014 10.0989 26.4684 10.6909L26.4606 10.8321C26.4566 10.9061 26.4528 10.9757 26.4489 11.0415L26.4433 11.0366C26.0057 10.6557 25.4266 10.5259 25.0362 10.47C24.7372 10.4272 24.4468 10.4153 24.2288 10.4119L24.2173 10.4107C24.1868 10.4107 24.1524 10.4107 24.1145 10.4108C24.0767 10.4107 24.0422 10.4107 24.0117 10.4107H24.0002C23.7822 10.414 23.4918 10.4272 23.1928 10.47C22.8025 10.5259 22.2234 10.6557 21.7857 11.0366ZM23.0053 12.3744C23.0053 12.3744 23.0134 12.3679 23.0318 12.358C23.0449 12.3508 23.062 12.3427 23.0835 12.3339V16.3334H24.9168V12.2681C24.9885 12.2828 25.0512 12.2998 25.1042 12.3182C25.1462 12.333 25.1766 12.3468 25.1973 12.358C25.2156 12.3679 25.2239 12.3746 25.2239 12.3746C25.6119 12.7123 26.0058 12.9972 26.4011 13.1264C26.6135 13.1959 26.8839 13.2397 27.1749 13.1703C27.4818 13.0971 27.7107 12.9222 27.8652 12.726C28.1264 12.3943 28.1966 11.9713 28.2298 11.7172C28.2625 11.4666 28.278 11.1777 28.2921 10.9156L28.2989 10.7883C28.3362 10.1198 28.3925 9.62366 28.5551 9.31451C28.6204 9.19045 28.681 9.14242 28.7342 9.11661C28.7927 9.08814 28.9392 9.04037 29.2542 9.08275C29.42 9.10506 29.491 9.1556 29.5289 9.19261C29.5742 9.23686 29.6377 9.32809 29.6818 9.51569C29.7764 9.91817 29.734 10.563 29.504 11.4008C29.0506 13.0517 27.9912 15.0203 26.8916 16.3214C26.2777 17.0477 26.0012 17.9385 25.8932 18.609C25.2385 18.3957 24.6296 18.2879 23.9973 18.3005C23.3736 18.3131 22.7658 18.443 22.1137 18.65C22.0104 17.9751 21.7353 17.0626 21.1089 16.3214C20.0178 15.0304 19.0164 13.0717 18.6174 11.4264C18.4154 10.5935 18.395 9.94909 18.5044 9.54364C18.5558 9.3535 18.6252 9.25447 18.6801 9.20246C18.728 9.15712 18.8082 9.10517 18.9749 9.08275C19.2898 9.04037 19.4363 9.08814 19.4949 9.11661C19.5481 9.14242 19.6087 9.19045 19.6739 9.31451C19.8365 9.62366 19.8928 10.1198 19.93 10.7883L19.937 10.9155C19.951 11.1776 19.9665 11.4666 19.9993 11.7172C20.0323 11.9713 20.1027 12.3943 20.3638 12.726C20.5184 12.9222 20.7473 13.0971 21.0542 13.1703C21.3452 13.2397 21.6156 13.1959 21.828 13.1264C22.2233 12.9972 22.6173 12.7122 23.0053 12.3744Z" fill="#008B96"/>
<path fill-rule="evenodd" clip-rule="evenodd" d="M25.834 33.6367C25.0248 33.9306 24.4783 34.065 23.9657 34.0753C23.4691 34.0852 22.9388 33.9785 22.1673 33.667V32.1602L20.334 34.1012V36.0421C20.334 38.0211 21.9756 39.6254 24.0006 39.6254C26.0256 39.6254 27.6671 38.0211 27.6672 36.0422L27.6673 34.1011L25.834 32.1602V33.6367ZM24.0006 37.8337C22.9881 37.8337 22.1673 37.0316 22.1672 36.0422L22.1673 35.5772C22.7995 35.778 23.3904 35.8789 24.0034 35.8666C24.6102 35.8544 25.2019 35.731 25.834 35.5338V36.0421C25.834 37.0316 25.0131 37.8337 24.0006 37.8337Z" fill="#008B96"/>
<path fill-rule="evenodd" clip-rule="evenodd" d="M13.3315 12.2627C14.2403 12.8236 14.9882 13.8418 15.5426 15.1908C15.6835 15.5338 15.8213 15.9036 15.9656 16.2904C16.4409 17.5657 16.9857 19.0274 17.943 20.3352C19.1292 21.9556 20.9165 23.265 24 23.265C27.0835 23.265 28.8708 21.9556 30.057 20.3352C31.0143 19.0274 31.5591 17.5657 32.0344 16.2905C32.1787 15.9036 32.3165 15.5338 32.4574 15.1908C33.0118 13.8418 33.7597 12.8236 34.6685 12.2627C35.6265 11.6715 36.7108 11.6299 37.6757 12.1726C38.5844 12.6835 39.2827 13.6501 39.7515 14.8795C40.2261 16.1237 40.5 17.7209 40.5 19.6313V28.7574C40.5 29.518 40.3496 31.2795 39.4761 32.8854C38.5688 34.5532 36.8746 36.0415 33.9424 36.0415C32.4801 36.0415 31.3884 35.6376 30.5025 35.0102C29.7098 34.449 29.1039 33.7185 28.5781 33.0845L28.4715 32.9562C27.8944 32.2624 27.3826 31.6764 26.7141 31.2447C26.0727 30.8305 25.2412 30.5323 24 30.5323C22.7588 30.5323 21.9273 30.8305 21.2859 31.2447C20.6174 31.6764 20.1056 32.2624 19.5285 32.9562L19.4219 33.0846C18.8961 33.7185 18.2902 34.449 17.4975 35.0102C16.6116 35.6376 15.5199 36.0415 14.0577 36.0415C11.1254 36.0415 9.43119 34.5532 8.52394 32.8854C7.65042 31.2795 7.5 29.518 7.5 28.7574V19.6313C7.5 17.7209 7.77387 16.1237 8.24843 14.8795C8.71732 13.6501 9.41559 12.6835 10.3243 12.1726C11.2892 11.6299 12.3735 11.6715 13.3315 12.2627ZM13 18.1246C13 18.6194 12.5896 19.0205 12.0833 19.0205C11.5771 19.0205 11.1667 18.6194 11.1667 18.1246C11.1667 17.6299 11.5771 17.2288 12.0833 17.2288C12.5896 17.2288 13 17.6299 13 18.1246ZM13.9167 22.6038C14.4229 22.6038 14.8333 22.2027 14.8333 21.708C14.8333 21.2132 14.4229 20.8121 13.9167 20.8121C13.4104 20.8121 13 21.2132 13 21.708C13 22.2027 13.4104 22.6038 13.9167 22.6038ZM13 25.2913C13 25.7861 12.5896 26.1871 12.0833 26.1871C11.5771 26.1871 11.1667 25.7861 11.1667 25.2913C11.1667 24.7965 11.5771 24.3955 12.0833 24.3955C12.5896 24.3955 13 24.7965 13 25.2913ZM16.6667 30.6663C17.1729 30.6663 17.5833 30.2652 17.5833 29.7705C17.5833 29.2757 17.1729 28.8746 16.6667 28.8746C16.1604 28.8746 15.75 29.2757 15.75 29.7705C15.75 30.2652 16.1604 30.6663 16.6667 30.6663ZM13.9167 29.7705C13.9167 30.2652 13.5063 30.6663 13 30.6663C12.4937 30.6663 12.0833 30.2652 12.0833 29.7705C12.0833 29.2757 12.4937 28.8746 13 28.8746C13.5063 28.8746 13.9167 29.2757 13.9167 29.7705ZM16.6667 27.083C17.1729 27.083 17.5833 26.6819 17.5833 26.1871C17.5833 25.6924 17.1729 25.2913 16.6667 25.2913C16.1604 25.2913 15.75 25.6924 15.75 26.1871C15.75 26.6819 16.1604 27.083 16.6667 27.083ZM21.25 27.083C21.25 27.5777 20.8396 27.9788 20.3333 27.9788C19.8271 27.9788 19.4167 27.5777 19.4167 27.083C19.4167 26.5882 19.8271 26.1871 20.3333 26.1871C20.8396 26.1871 21.25 26.5882 21.25 27.083ZM35.9167 19.0205C35.4104 19.0205 35 18.6194 35 18.1246C35 17.6299 35.4104 17.2288 35.9167 17.2288C36.4229 17.2288 36.8333 17.6299 36.8333 18.1246C36.8333 18.6194 36.4229 19.0205 35.9167 19.0205ZM33.1667 21.708C33.1667 22.2027 33.5771 22.6038 34.0833 22.6038C34.5896 22.6038 35 22.2027 35 21.708C35 21.2132 34.5896 20.8121 34.0833 20.8121C33.5771 20.8121 33.1667 21.2132 33.1667 21.708ZM35.9167 26.1871C35.4104 26.1871 35 25.7861 35 25.2913C35 24.7965 35.4104 24.3955 35.9167 24.3955C36.4229 24.3955 36.8333 24.7965 36.8333 25.2913C36.8333 25.7861 36.4229 26.1871 35.9167 26.1871ZM30.4167 29.7705C30.4167 30.2652 30.8271 30.6663 31.3333 30.6663C31.8396 30.6663 32.25 30.2652 32.25 29.7705C32.25 29.2757 31.8396 28.8746 31.3333 28.8746C30.8271 28.8746 30.4167 29.2757 30.4167 29.7705ZM35 30.6663C34.4937 30.6663 34.0833 30.2652 34.0833 29.7705C34.0833 29.2757 34.4937 28.8746 35 28.8746C35.5063 28.8746 35.9167 29.2757 35.9167 29.7705C35.9167 30.2652 35.5063 30.6663 35 30.6663ZM30.4167 26.1871C30.4167 26.6819 30.8271 27.083 31.3333 27.083C31.8396 27.083 32.25 26.6819 32.25 26.1871C32.25 25.6924 31.8396 25.2913 31.3333 25.2913C30.8271 25.2913 30.4167 25.6924 30.4167 26.1871ZM27.6667 27.9788C27.1604 27.9788 26.75 27.5777 26.75 27.083C26.75 26.5882 27.1604 26.1871 27.6667 26.1871C28.1729 26.1871 28.5833 26.5882 28.5833 27.083C28.5833 27.5777 28.1729 27.9788 27.6667 27.9788ZM24.9167 27.083C24.9167 27.5777 24.5063 27.9788 24 27.9788C23.4937 27.9788 23.0833 27.5777 23.0833 27.083C23.0833 26.5882 23.4937 26.1871 24 26.1871C24.5063 26.1871 24.9167 26.5882 24.9167 27.083Z" fill="#008B96"/>
<path fill-rule="evenodd" clip-rule="evenodd" d="M0 44C0 46.2092 1.75356 48 3.91667 48H43.0833C45.2465 48 47 46.2092 47 44V4C47 1.79087 45.2465 0 43.0833 0H3.91667C1.75356 0 0 1.79087 0 4V44ZM2.61111 4C2.61111 3.26363 3.19562 2.66667 3.91667 2.66667H43.0833C43.8044 2.66667 44.3889 3.26361 44.3889 4V44C44.3889 44.7364 43.8044 45.3333 43.0833 45.3333H35.25H33.9435C30.7173 45.3333 34.6646 45.3333 33.9435 45.3333H28.7729C28.0518 45.3333 31.3582 45.3333 29.8012 45.3333H27.4167H18.2778H16.564C16.564 44.5969 16.564 48 16.564 45.3333H12.7842C12.0631 45.3333 9.08039 45.3333 10.4444 45.3333H3.91667C3.19563 45.3333 2.61111 44.7364 2.61111 44V4Z" fill="#008B96"/>
</svg>
