<svg width="51" height="51" viewBox="0 0 51 51" fill="none" xmlns="http://www.w3.org/2000/svg">
<path d="M2.8 24.1001C2.8 21.3001 4.7 18.9001 7.3 18.2001C7.4 18.4001 7.6 18.6001 7.9 18.7001L11.9 20.3001C13.2 20.8001 14.6 19.9001 14.6 18.5001V17.6001V15.9001V15.0001C14.6 13.6001 13.2 12.6001 11.9 13.2001L7.9 14.8001C7.7 14.9001 7.5 15.0001 7.4 15.2001C7.4 15.2001 7.4 15.3001 7.3 15.3001C3.2 16.0001 0 19.7001 0 24.1001C0 29.1001 4 33.1001 9 33.1001H16V30.3001H9C5.6 30.2001 2.8 27.5001 2.8 24.1001Z" fill="#008B96"/>
<path d="M24.0993 0C20.1993 0 16.8993 2.5 15.5993 6C15.3993 6.1 15.1993 6.4 14.9993 6.6L13.3993 10.6C12.8993 11.9 13.7993 13.3 15.1993 13.3H16.0993H17.7993H18.6993C20.0993 13.3 21.0993 11.9 20.4993 10.6L18.8993 6.6C18.7993 6.4 18.6993 6.3 18.5993 6.1C19.5993 4.1 21.6993 2.8 23.9993 2.8C27.3993 2.8 30.0993 5.6 30.0993 8.9V17.6V18V27.1C30.0993 28.8 28.6993 30.2 26.9993 30.2H22.0993V33H26.9993C30.2993 33 32.8993 30.3 32.8993 27.1V18V17.6V9C33.0993 4 28.9993 0 24.0993 0Z" fill="#008B96"/>
<path d="M34.4008 46.3996C37.6008 46.2996 40.1008 43.6996 40.1008 40.4996C40.1008 37.1996 37.5008 34.5996 34.2008 34.5996C30.9008 34.5996 28.3008 37.1996 28.3008 40.4996C28.3008 42.6996 29.5008 44.6996 31.4008 45.6996C32.2008 46.1996 33.2008 46.3996 34.2008 46.3996C34.3008 46.3996 34.3008 46.3996 34.4008 46.3996ZM31.2008 40.4996C31.2008 38.7996 32.6008 37.4996 34.2008 37.4996C35.9008 37.4996 37.2008 38.8996 37.2008 40.4996C37.2008 41.6996 36.5008 42.7996 35.5008 43.2996C35.1008 43.4996 34.7008 43.5996 34.2008 43.5996C33.6008 43.5996 33.1008 43.3996 32.6008 43.1996C31.8008 42.4996 31.2008 41.5996 31.2008 40.4996Z" fill="#652F6B"/>
<path d="M34.3016 42.1998C35.2016 42.1998 36.0016 41.3998 36.0016 40.4998C36.0016 39.4998 35.2016 38.7998 34.3016 38.7998C33.3016 38.7998 32.6016 39.5998 32.6016 40.4998C32.6016 41.1998 33.0016 41.6998 33.5016 41.9998C33.6016 42.0998 33.9016 42.1998 34.3016 42.1998C34.2016 42.1998 34.2016 42.1998 34.3016 42.1998Z" fill="#652F6B"/>
<path d="M30.5008 46.6002C29.5008 47.4002 28.1008 47.9002 26.7008 47.9002C23.3008 47.9002 20.6008 45.1002 20.6008 41.8002V36.9002V29.4002V23.6002C20.6008 21.9002 22.0008 20.5002 23.7008 20.5002H28.6008V17.7002H23.7008C20.4008 17.7002 17.8008 20.4002 17.8008 23.6002V30.2002V33.0002V41.7002C17.8008 46.7002 21.8008 50.7002 26.8008 50.7002C29.5008 50.7002 32.0008 49.5002 33.6008 47.6002C32.6008 47.5002 31.7008 47.2002 30.9008 46.8002C30.7008 46.7002 30.6008 46.6002 30.5008 46.6002Z" fill="#652F6B"/>
<path d="M41.8008 17.7002H34.8008V20.5002H41.8008C45.2008 20.5002 47.9008 23.3002 47.9008 26.6002C47.9008 30.0002 45.1008 32.7002 41.8008 32.7002H40.5008C39.7008 32.7002 39.1008 33.3002 39.1008 34.1002C39.1008 34.9002 39.7008 35.5002 40.5008 35.5002H41.8008C46.8008 35.5002 50.8008 31.5002 50.8008 26.5002C50.8008 21.5002 46.7008 17.7002 41.8008 17.7002Z" fill="#652F6B"/>
</svg>
