<?xml version="1.0" encoding="utf-8"?>
<!-- Generator: Adobe Illustrator 26.3.1, SVG Export Plug-In . SVG Version: 6.00 Build 0)  -->
<svg version="1.1" id="Слой_1" xmlns="http://www.w3.org/2000/svg" xmlns:xlink="http://www.w3.org/1999/xlink" x="0px" y="0px"
	 viewBox="0 0 141.7 103.9" style="enable-background:new 0 0 141.7 103.9;" xml:space="preserve">
<style type="text/css">
	.st0{fill:#008B96;}
	.st1{fill:#652F6B;}
</style>
<g>
	<g>
		<g>
			<path class="st0" d="M6.4,101.6v-3.9l-2,3.3H3.6l-1.9-3.3v3.9H0V95h2l2.1,3.8L6.3,95h1.8l0,6.5H6.4z"/>
			<path class="st0" d="M18.7,98.8h-4.9c0.1,0.4,0.3,0.7,0.6,1c0.3,0.2,0.7,0.4,1.2,0.4c0.3,0,0.6-0.1,0.9-0.2
				c0.3-0.1,0.5-0.3,0.7-0.5l1,1.1c-0.6,0.7-1.5,1.1-2.7,1.1c-0.7,0-1.4-0.1-2-0.4c-0.6-0.3-1-0.7-1.3-1.2c-0.3-0.5-0.5-1.1-0.5-1.7
				c0-0.6,0.2-1.2,0.5-1.7c0.3-0.5,0.7-0.9,1.3-1.2c0.5-0.3,1.1-0.4,1.8-0.4c0.6,0,1.2,0.1,1.7,0.4c0.5,0.3,0.9,0.7,1.2,1.2
				c0.3,0.5,0.4,1.1,0.4,1.8C18.7,98.3,18.7,98.5,18.7,98.8z M14.2,96.7c-0.3,0.2-0.5,0.6-0.5,1h3.2c-0.1-0.4-0.2-0.7-0.5-1
				c-0.3-0.2-0.6-0.4-1.1-0.4C14.9,96.4,14.5,96.5,14.2,96.7z"/>
			<path class="st0" d="M29.9,100v3h-1.8v-1.4h-4.6v1.4h-1.8v-3H22c0.4,0,0.7-0.2,0.8-0.7c0.2-0.5,0.3-1.1,0.3-2l0.1-2.3h5.7v5H29.9
				z M24.7,99c-0.1,0.4-0.2,0.7-0.4,1H27v-3.4h-2.1l0,0.8C24.8,98.1,24.8,98.6,24.7,99z"/>
			<path class="st0" d="M33.5,95h1.9v3.9l3.2-3.9h1.7v6.5h-1.9v-3.9l-3.2,3.9h-1.8V95z"/>
			<path class="st0" d="M50.4,95v6.5h-1.9v-2.4c-0.6,0.3-1.2,0.4-1.8,0.4c-0.9,0-1.6-0.2-2-0.6c-0.4-0.4-0.7-1-0.7-1.9V95h1.9V97
				c0,0.4,0.1,0.7,0.3,0.9c0.2,0.2,0.5,0.3,0.9,0.3c0.5,0,1-0.1,1.4-0.3V95H50.4z"/>
			<path class="st0" d="M54.7,95h1.9v2.6h2.8V95h1.9v6.5h-1.9v-2.4h-2.8v2.4h-1.9V95z"/>
			<path class="st0" d="M65.6,95h1.9v3.9l3.2-3.9h1.7v6.5h-1.9v-3.9l-3.2,3.9h-1.8V95z"/>
			<path class="st0" d="M76.6,95h1.9v3.9l3.2-3.9h1.7v6.5h-1.9v-3.9l-3.2,3.9h-1.8V95z M77.8,92.4H79c0,0.3,0.1,0.5,0.2,0.7
				c0.1,0.2,0.4,0.2,0.7,0.2c0.3,0,0.5-0.1,0.7-0.2c0.2-0.2,0.2-0.4,0.2-0.7h1.3c0,1.3-0.7,1.9-2.2,1.9
				C78.5,94.3,77.8,93.7,77.8,92.4z"/>
			<path class="st0" d="M100.9,100v3h-1.8v-1.4h-5.6V95h1.9v5h2.6v-5h1.9v5H100.9z"/>
			<path class="st0" d="M110.9,98.8h-4.9c0.1,0.4,0.3,0.7,0.6,1c0.3,0.2,0.7,0.4,1.2,0.4c0.3,0,0.6-0.1,0.9-0.2
				c0.3-0.1,0.5-0.3,0.7-0.5l1,1.1c-0.6,0.7-1.5,1.1-2.7,1.1c-0.7,0-1.4-0.1-2-0.4c-0.6-0.3-1-0.7-1.3-1.2c-0.3-0.5-0.5-1.1-0.5-1.7
				c0-0.6,0.2-1.2,0.5-1.7c0.3-0.5,0.7-0.9,1.3-1.2c0.5-0.3,1.1-0.4,1.8-0.4c0.6,0,1.2,0.1,1.7,0.4c0.5,0.3,0.9,0.7,1.2,1.2
				c0.3,0.5,0.4,1.1,0.4,1.8C110.9,98.3,110.9,98.5,110.9,98.8z M106.4,96.7c-0.3,0.2-0.5,0.6-0.5,1h3.2c-0.1-0.4-0.2-0.7-0.5-1
				c-0.3-0.2-0.6-0.4-1.1-0.4C107.1,96.4,106.7,96.5,106.4,96.7z"/>
			<path class="st0" d="M114.8,95h1.9v2.6h2.8V95h1.9v6.5h-1.9v-2.4h-2.8v2.4h-1.9V95z"/>
			<path class="st0" d="M131.2,96.6H129v5h-1.9v-5h-2.2V95h6.3V96.6z"/>
			<path class="st0" d="M140.1,95.3c0.5,0.3,0.9,0.7,1.2,1.2c0.3,0.5,0.4,1.1,0.4,1.8c0,0.7-0.1,1.3-0.4,1.8s-0.7,0.9-1.2,1.2
				c-0.5,0.3-1.1,0.4-1.7,0.4c-0.8,0-1.5-0.3-2-0.8v3.1h-1.9V95h1.8v0.8c0.5-0.6,1.2-0.9,2.1-0.9C139.1,94.9,139.6,95.1,140.1,95.3z
				 M139.3,99.6c0.3-0.3,0.5-0.8,0.5-1.3c0-0.6-0.2-1-0.5-1.3c-0.3-0.3-0.7-0.5-1.2-0.5c-0.5,0-0.9,0.2-1.2,0.5
				c-0.3,0.3-0.5,0.8-0.5,1.3c0,0.6,0.2,1,0.5,1.3c0.3,0.3,0.7,0.5,1.2,0.5C138.6,100.1,139,99.9,139.3,99.6z"/>
		</g>
		<g>
			<g>
				<path class="st1" d="M19.2,84.2L19.2,84.2l-0.1,0H19h-0.5l-6.7-15.9c-0.3-0.7-0.8-1.1-1.5-1.1c-0.5,0-1.1,0.2-1.5,1.1L2.1,84.2
					H1.6H1.5H1.4v0C0.6,84.3,0,84.9,0,85.7c0,0.8,0.7,1.5,1.5,1.5h17.6c0.8,0,1.5-0.7,1.5-1.5C20.6,84.9,20,84.3,19.2,84.2z
					 M10.3,72.2l4.9,12H5.5L10.3,72.2z"/>
				<path class="st1" d="M30.8,74c-0.1-0.3-0.3-0.6-0.6-0.8c-0.3-0.2-0.5-0.3-0.9-0.3c-0.7,0-1.2,0.4-1.5,1l-5.1,11
					c-0.2,0.4-0.2,0.8-0.1,1.2c0.2,0.3,0.4,0.6,0.8,0.7c0.4,0.2,0.8,0.2,1.2,0.1c0.4-0.1,0.7-0.4,0.9-0.8l3.8-8.4l3.7,8.4
					c0.2,0.4,0.5,0.7,0.9,0.8c0.1,0,0.2,0.1,0.4,0.1c0.2,0,0.5-0.1,0.8-0.2c0.4-0.2,0.6-0.4,0.8-0.8c0.2-0.3,0.1-0.7,0-1.2L30.8,74z
					"/>
				<path class="st1" d="M47.2,73H43c-1,0-1.9,0.2-2.7,0.6c-0.8,0.4-1.4,1-1.9,1.8c-0.5,0.7-0.7,1.6-0.7,2.5c0,0.9,0.2,1.6,0.6,2.3
					c0.4,0.7,1,1.2,1.7,1.6c0.1,0,0.2,0.1,0.3,0.1l-2.2,2.9c-0.2,0.3-0.3,0.6-0.4,1c0,0.4,0.1,0.7,0.5,1.1c0.3,0.2,0.7,0.4,1.2,0.4
					c0,0,0,0,0.1,0c0.5,0,0.9-0.2,1.3-0.6l3.1-3.9h1.8v2.9c0,0.5,0.1,0.8,0.4,1.1c0.3,0.3,0.7,0.5,1.1,0.5c0.5,0,0.9-0.2,1.2-0.5
					c0.3-0.3,0.4-0.7,0.5-1.1v-11c0-0.5-0.2-0.9-0.4-1.2C48.1,73.1,47.7,73,47.2,73z M43,76h2.7v3.9H43c-0.6,0-1.1-0.2-1.5-0.6
					c-0.4-0.4-0.6-0.8-0.6-1.4c0-0.6,0.2-1,0.6-1.3C41.9,76.2,42.4,76,43,76z"/>
				<path class="st1" d="M66.6,74c-0.1-0.3-0.3-0.6-0.6-0.8c-0.3-0.2-0.5-0.3-0.9-0.3c-0.7,0-1.2,0.4-1.5,1l-5.1,11
					c-0.2,0.4-0.2,0.8-0.1,1.2c0.2,0.3,0.4,0.6,0.8,0.7c0.4,0.2,0.8,0.2,1.2,0.1c0.4-0.1,0.7-0.4,0.9-0.8l3.8-8.4l3.7,8.4
					c0.2,0.4,0.5,0.7,0.9,0.8c0.1,0,0.2,0.1,0.4,0.1c0.2,0,0.5-0.1,0.8-0.2c0.4-0.2,0.6-0.4,0.8-0.8c0.2-0.3,0.1-0.7,0-1.2L66.6,74z
					"/>
				<path class="st1" d="M90.3,73.8c-1.1-0.6-2.3-0.9-3.7-0.9c-1.4,0-2.6,0.3-3.7,0.9c-1.1,0.6-1.9,1.5-2.5,2.5
					c-0.3,0.6-0.6,1.3-0.7,2h-2.2v-3.8c0-0.5-0.2-0.9-0.4-1.2c-0.6-0.6-1.7-0.6-2.3,0c-0.3,0.3-0.5,0.7-0.5,1.2v11
					c0,0.5,0.2,0.8,0.5,1.1c0.6,0.6,1.7,0.6,2.3,0c0.3-0.3,0.4-0.7,0.4-1.1v-4.2h2.1c0.1,0.9,0.4,1.7,0.8,2.4
					c0.6,1.1,1.5,1.9,2.5,2.5c1.1,0.6,2.3,0.9,3.7,0.9c1.4,0,2.6-0.3,3.7-0.9c1.1-0.6,1.9-1.5,2.5-2.5c0.6-1.1,0.9-2.3,0.9-3.7
					c0-1.4-0.3-2.7-0.9-3.7C92.2,75.3,91.3,74.4,90.3,73.8z M86.6,75.8c0.8,0,1.5,0.2,2.1,0.5c0.6,0.4,1.1,0.9,1.4,1.5
					c0.3,0.6,0.5,1.4,0.5,2.2c0,0.8-0.2,1.6-0.5,2.2c-0.3,0.6-0.8,1.1-1.4,1.5c-1.2,0.7-3,0.7-4.2,0c-0.6-0.4-1.1-0.9-1.4-1.5
					c-0.3-0.6-0.5-1.4-0.5-2.2c0-0.8,0.2-1.6,0.5-2.2c0.3-0.6,0.8-1.1,1.4-1.5C85.1,76,85.8,75.8,86.6,75.8z"/>
				<path class="st1" d="M109.4,83.8c0.6-1.1,0.9-2.3,0.9-3.7v-5.3c0-1.3-0.3-2.6-0.9-3.7c-0.6-1.1-1.5-2-2.5-2.7
					c-1.1-0.7-2.3-1-3.7-1c-1.2,0-2.4,0.2-3.4,0.7c-1.1,0.5-2,1.2-2.7,2.1c-0.3,0.4-0.4,0.8-0.3,1.1c0.1,0.4,0.3,0.7,0.6,0.9
					c0.4,0.3,0.8,0.3,1.2,0.3c0.4-0.1,0.7-0.3,1-0.6c0.4-0.5,0.9-0.9,1.5-1.2c1.2-0.6,2.9-0.6,4.1,0.1c0.6,0.3,1.1,0.9,1.5,1.5
					c0.4,0.7,0.5,1.5,0.5,2.5V75c-0.4-0.5-0.8-0.9-1.3-1.2c-0.9-0.6-2-0.9-3.2-0.9c-1.3,0-2.5,0.3-3.4,0.9c-1,0.6-1.8,1.5-2.4,2.5
					c-0.6,1.1-0.9,2.3-0.9,3.7c0,1.4,0.3,2.7,0.9,3.7c0.6,1.1,1.5,1.9,2.5,2.5c1.1,0.6,2.3,0.9,3.7,0.9c1.4,0,2.6-0.3,3.7-0.9
					C108,85.7,108.8,84.9,109.4,83.8z M101.1,83.8c-0.6-0.4-1.1-0.9-1.4-1.5c-0.3-0.6-0.5-1.4-0.5-2.2c0-0.8,0.2-1.6,0.5-2.2
					c0.3-0.6,0.8-1.1,1.4-1.5c1.2-0.7,3-0.7,4.2,0c0.6,0.4,1.1,0.9,1.4,1.5c0.3,0.6,0.5,1.4,0.5,2.2c0,0.8-0.2,1.6-0.5,2.2
					c-0.3,0.6-0.8,1.1-1.4,1.5c-0.6,0.4-1.3,0.5-2.1,0.5C102.4,84.3,101.7,84.2,101.1,83.8z"/>
				<path class="st1" d="M123.2,73.8c-1-0.6-2.1-0.9-3.5-0.9c-1.4,0-2.6,0.3-3.6,0.9c-1.1,0.6-1.9,1.5-2.5,2.5
					c-0.6,1.1-0.9,2.3-0.9,3.7c0,1.4,0.3,2.6,0.9,3.7c0.6,1.1,1.5,1.9,2.6,2.5c1.1,0.6,2.4,0.9,3.8,0.9c0.8,0,1.6-0.1,2.5-0.4
					c0.9-0.3,1.6-0.7,2.2-1.1c0.5-0.4,0.5-0.8,0.5-1.1c0-0.4-0.2-0.7-0.6-1.1c-0.3-0.2-0.6-0.3-1-0.3c-0.4,0-0.7,0.1-1,0.4
					c-0.3,0.2-0.7,0.4-1.2,0.6c-1.4,0.5-2.7,0.3-3.8-0.3c-0.7-0.4-1.2-0.9-1.6-1.5c-0.2-0.3-0.3-0.6-0.4-1h8.9
					c0.4,0,0.8-0.1,1.1-0.4c0.3-0.3,0.4-0.6,0.4-1c0-1.3-0.3-2.5-0.8-3.6C124.9,75.2,124.1,74.4,123.2,73.8z M119.7,75.7
					c0.7,0,1.4,0.2,1.9,0.5c0.5,0.3,0.9,0.8,1.2,1.4c0.1,0.3,0.2,0.6,0.3,1h-7.3c0.1-0.3,0.2-0.6,0.3-0.8c0.3-0.7,0.8-1.2,1.4-1.5
					C118.1,75.9,118.8,75.7,119.7,75.7z"/>
				<path class="st1" d="M141.3,73.4c-0.6-0.6-1.7-0.6-2.3,0c-0.3,0.3-0.5,0.7-0.5,1.2v6.9c0,0.5-0.1,1-0.4,1.4
					c-0.3,0.4-0.7,0.8-1.2,1c-1,0.5-2.5,0.5-3.6,0c-0.5-0.3-0.9-0.6-1.3-1.2c-0.3-0.5-0.5-1.3-0.5-2.1v-6.1c0-0.5-0.2-0.8-0.5-1.1
					c-0.6-0.6-1.7-0.6-2.3,0c-0.3,0.3-0.5,0.7-0.5,1.1v6.1c0,1.4,0.3,2.6,0.8,3.6c0.5,1,1.3,1.8,2.3,2.3c0.9,0.5,2,0.8,3.2,0.8
					c1.2,0,2.2-0.3,3.1-0.8c0.3-0.1,0.5-0.3,0.8-0.5c0.1,0.3,0.2,0.5,0.4,0.7c0.6,0.6,1.7,0.6,2.3,0c0.3-0.3,0.4-0.7,0.4-1.1v-11
					C141.7,74.1,141.6,73.7,141.3,73.4z"/>
				<path class="st1" d="M132.8,71.5c0.7,0.3,1.5,0.5,2.4,0.5c0.9,0,1.7-0.2,2.4-0.5c0.7-0.3,1.3-0.7,1.7-1.3
					c0.4-0.6,0.7-1.2,0.7-1.9c0-0.4-0.1-0.8-0.4-1.1c-0.5-0.6-1.5-0.6-2.1,0c-0.3,0.3-0.4,0.7-0.4,1.1c0,0.3-0.2,0.5-0.5,0.8
					c-0.4,0.2-0.8,0.4-1.4,0.4c-0.6,0-1-0.1-1.4-0.4c-0.3-0.2-0.5-0.5-0.5-0.8c0-0.4-0.1-0.8-0.4-1.1c-0.5-0.6-1.5-0.6-2.1,0
					c-0.3,0.3-0.4,0.7-0.4,1.1c0,0.7,0.2,1.3,0.7,1.9C131.5,70.7,132.1,71.2,132.8,71.5z"/>
			</g>
		</g>
	</g>
	<g>
		<path class="st0" d="M44.1,28.6c0-3.3,2.2-6.1,5.3-7c0.2,0.3,0.4,0.5,0.7,0.6l4.7,1.9c1.6,0.6,3.2-0.5,3.2-2.2v-1v-2v-1
			c0-1.7-1.7-2.8-3.2-2.2l-4.7,1.9c-0.2,0.1-0.4,0.2-0.6,0.4c0,0,0,0.1-0.1,0.1c-5,0.9-8.8,5.3-8.8,10.5c0,5.9,4.8,10.7,10.7,10.7
			h8.3v-3.4h-8.3C47.4,35.9,44.1,32.7,44.1,28.6z"/>
		<path class="st0" d="M69.3,0c-4.6,0-8.6,3-10.1,7.1c-0.3,0.2-0.5,0.4-0.7,0.7l-1.9,4.7c-0.6,1.6,0.5,3.2,2.2,3.2h1h2h1
			c1.7,0,2.8-1.7,2.2-3.2l-1.9-4.7c-0.1-0.2-0.2-0.4-0.4-0.5c1.2-2.3,3.7-3.9,6.5-3.9c4,0,7.3,3.3,7.3,7.3V21v0.5v10.8
			c0,2-1.7,3.7-3.7,3.7h-5.8v3.4h5.8c3.9,0,7.1-3.2,7.1-7.1V21.4V21V10.7C80,4.8,75.2,0,69.3,0z"/>
	</g>
	<g>
		<path class="st1" d="M81.5,55.1c3.8-0.1,6.8-3.2,6.8-7c0-3.9-3.1-7-7-7c-3.9,0-7,3.1-7,7c0,2.7,1.5,5,3.7,6.2
			c1,0.5,2.1,0.9,3.4,0.9C81.4,55.1,81.5,55.1,81.5,55.1z M77.7,48.1c0-2,1.6-3.6,3.6-3.6c2,0,3.6,1.6,3.6,3.6
			c0,1.4-0.9,2.7-2.1,3.3c-0.5,0.2-1,0.4-1.5,0.4c-0.7,0-1.3-0.2-1.9-0.5C78.5,50.6,77.7,49.4,77.7,48.1z"/>
		<path class="st1" d="M81.4,50.2c1.1,0,2-0.9,2-2.1c0-1.1-0.9-2.1-2.1-2.1c-1.1,0-2.1,0.9-2.1,2.1c0,0.8,0.4,1.5,1.1,1.8
			C80.7,50.1,81,50.2,81.4,50.2C81.4,50.2,81.4,50.2,81.4,50.2z"/>
	</g>
	<g>
		<path class="st1" d="M76.9,55.4c-1.2,1-2.8,1.6-4.5,1.6c-4,0-7.3-3.3-7.3-7.3v-5.8v-8.9v-6.8c0-2,1.7-3.7,3.7-3.7h5.8V21h-5.8
			c-3.9,0-7.1,3.2-7.1,7.1v7.8v3.4v10.3c0,5.9,4.8,10.7,10.7,10.7c3.2,0,6.1-1.5,8.1-3.7c-1.1-0.1-2.2-0.5-3.2-1
			C77.2,55.5,77,55.4,76.9,55.4z"/>
		<path class="st1" d="M90.4,21h-8.3v3.4h8.3c4,0,7.3,3.3,7.3,7.3c0,4-3.3,7.3-7.3,7.3h-1.5c-0.9,0-1.7,0.8-1.7,1.7
			c0,0.9,0.8,1.7,1.7,1.7h1.5c5.9,0,10.7-4.8,10.7-10.7S96.2,21,90.4,21z"/>
	</g>
</g>
</svg>
