<?xml version="1.0" encoding="utf-8"?>
<!-- Generator: Adobe Illustrator 26.3.1, SVG Export Plug-In . SVG Version: 6.00 Build 0)  -->
<svg version="1.1" id="Слой_1" xmlns="http://www.w3.org/2000/svg" xmlns:xlink="http://www.w3.org/1999/xlink" x="0px" y="0px"
	 viewBox="0 0 255.1 50.7" style="enable-background:new 0 0 255.1 50.7;" xml:space="preserve">
<style type="text/css">
	.st0{fill:#008B96;}
	.st1{fill:#652F6B;}
</style>
<g>
	<g>
		<g>
			<path class="st0" d="M70.5,47.5v-5.3l-2.7,4.5h-1.1l-2.6-4.5v5.4h-2.3v-8.9h2.7l2.9,5.2l3-5.2h2.4l0,8.9H70.5z"/>
			<path class="st0" d="M87.2,43.8h-6.8c0.1,0.6,0.4,1,0.9,1.3c0.5,0.3,1,0.5,1.7,0.5c0.5,0,0.9-0.1,1.2-0.2c0.4-0.1,0.7-0.4,1-0.7
				l1.4,1.5c-0.8,1-2.1,1.4-3.7,1.4c-1,0-1.9-0.2-2.7-0.6c-0.8-0.4-1.4-0.9-1.8-1.6c-0.4-0.7-0.6-1.5-0.6-2.4c0-0.9,0.2-1.7,0.6-2.4
				c0.4-0.7,1-1.2,1.7-1.6c0.7-0.4,1.5-0.6,2.4-0.6c0.9,0,1.7,0.2,2.4,0.6c0.7,0.4,1.3,0.9,1.7,1.6c0.4,0.7,0.6,1.5,0.6,2.4
				C87.3,43.1,87.3,43.4,87.2,43.8z M81.2,40.9c-0.4,0.3-0.6,0.8-0.7,1.4h4.4c-0.1-0.6-0.3-1-0.7-1.4c-0.4-0.3-0.9-0.5-1.5-0.5
				C82.1,40.4,81.6,40.6,81.2,40.9z"/>
			<path class="st0" d="M102.5,45.4v4h-2.4v-1.9h-6.3v1.9h-2.4v-4h0.4c0.6,0,0.9-0.3,1.1-1c0.2-0.6,0.3-1.6,0.4-2.7l0.1-3.1h7.8v6.8
				H102.5z M95.5,44.1c-0.1,0.6-0.3,1-0.6,1.3h3.8v-4.7h-2.9l0,1.1C95.7,42.8,95.6,43.5,95.5,44.1z"/>
			<path class="st0" d="M107.5,38.6h2.6v5.3l4.3-5.3h2.4v8.9h-2.6v-5.3l-4.3,5.3h-2.4V38.6z"/>
			<path class="st0" d="M130.6,38.6v8.9H128v-3.3c-0.8,0.4-1.6,0.6-2.5,0.6c-1.2,0-2.1-0.3-2.7-0.8c-0.6-0.5-0.9-1.4-0.9-2.5v-2.8
				h2.6v2.6c0,0.5,0.1,0.9,0.4,1.2c0.3,0.2,0.7,0.4,1.2,0.4c0.7,0,1.3-0.1,1.9-0.4v-3.7H130.6z"/>
			<path class="st0" d="M136.4,38.6h2.6v3.5h3.9v-3.5h2.6v8.9h-2.6v-3.3H139v3.3h-2.6V38.6z"/>
			<path class="st0" d="M151.2,38.6h2.6v5.3l4.3-5.3h2.4v8.9h-2.6v-5.3l-4.3,5.3h-2.4V38.6z"/>
			<path class="st0" d="M166.3,38.6h2.6v5.3l4.3-5.3h2.4v8.9H173v-5.3l-4.3,5.3h-2.4V38.6z M167.9,35.1h1.7c0,0.4,0.1,0.7,0.3,0.9
				c0.2,0.2,0.5,0.3,0.9,0.3c0.4,0,0.7-0.1,0.9-0.3c0.2-0.2,0.3-0.5,0.3-0.9h1.7c0,1.7-1,2.6-3,2.6
				C168.8,37.6,167.9,36.8,167.9,35.1z"/>
			<path class="st0" d="M199.5,45.4v4.1h-2.4v-2h-7.6v-8.9h2.6v6.8h3.6v-6.8h2.6v6.8H199.5z"/>
			<path class="st0" d="M213,43.8h-6.8c0.1,0.6,0.4,1,0.9,1.3c0.5,0.3,1,0.5,1.7,0.5c0.5,0,0.9-0.1,1.2-0.2c0.4-0.1,0.7-0.4,1-0.7
				l1.4,1.5c-0.8,1-2.1,1.4-3.7,1.4c-1,0-1.9-0.2-2.7-0.6c-0.8-0.4-1.4-0.9-1.8-1.6c-0.4-0.7-0.6-1.5-0.6-2.4c0-0.9,0.2-1.7,0.6-2.4
				c0.4-0.7,1-1.2,1.7-1.6c0.7-0.4,1.5-0.6,2.4-0.6c0.9,0,1.7,0.2,2.4,0.6c0.7,0.4,1.3,0.9,1.7,1.6c0.4,0.7,0.6,1.5,0.6,2.4
				C213.1,43.1,213.1,43.4,213,43.8z M207,40.9c-0.4,0.3-0.6,0.8-0.7,1.4h4.4c-0.1-0.6-0.3-1-0.7-1.4c-0.4-0.3-0.9-0.5-1.5-0.5
				C207.9,40.4,207.4,40.6,207,40.9z"/>
			<path class="st0" d="M218.4,38.6h2.6v3.5h3.9v-3.5h2.6v8.9h-2.6v-3.3H221v3.3h-2.6V38.6z"/>
			<path class="st0" d="M240.7,40.7h-3v6.8h-2.6v-6.8h-3v-2.1h8.6V40.7z"/>
			<path class="st0" d="M252.9,39c0.7,0.4,1.2,0.9,1.6,1.6c0.4,0.7,0.6,1.5,0.6,2.4c0,0.9-0.2,1.7-0.6,2.4s-0.9,1.2-1.6,1.6
				c-0.7,0.4-1.4,0.6-2.3,0.6c-1.1,0-2-0.4-2.7-1.1v4.2h-2.6V38.6h2.5v1c0.6-0.8,1.6-1.2,2.8-1.2C251.5,38.5,252.3,38.7,252.9,39z
				 M251.9,44.9c0.4-0.4,0.6-1,0.6-1.8c0-0.8-0.2-1.4-0.6-1.8c-0.4-0.4-1-0.7-1.6-0.7s-1.2,0.2-1.6,0.7c-0.4,0.4-0.6,1-0.6,1.8
				c0,0.8,0.2,1.4,0.6,1.8c0.4,0.4,1,0.7,1.6,0.7S251.4,45.3,251.9,44.9z"/>
		</g>
		<g>
			<g>
				<path class="st1" d="M88,23.9L88,23.9l-0.1,0h-0.2H87L77.9,2.2c-0.4-1-1.1-1.5-2.1-1.5c-0.7,0-1.6,0.3-2.1,1.5l-9.1,21.7H64
					h-0.2h-0.2v0c-1,0.1-1.8,0.9-1.8,2c0,1.1,0.9,2,2,2h24c1.1,0,2-0.9,2-2C89.9,24.8,89,23.9,88,23.9z M75.9,7.5l6.7,16.3H69.3
					L75.9,7.5z"/>
				<path class="st1" d="M103.8,10c-0.2-0.5-0.5-0.8-0.8-1c-0.3-0.2-0.7-0.3-1.2-0.3c-0.9,0-1.6,0.5-2,1.4l-6.9,15
					c-0.3,0.6-0.3,1.1-0.1,1.6c0.2,0.4,0.6,0.8,1.1,1c0.6,0.3,1.1,0.3,1.6,0.2c0.5-0.2,0.9-0.5,1.2-1.1l5.2-11.5l5.1,11.5
					c0.3,0.6,0.7,0.9,1.2,1.1c0.2,0.1,0.3,0.1,0.5,0.1c0.3,0,0.7-0.1,1.1-0.3c0.5-0.2,0.8-0.6,1-1c0.2-0.5,0.2-1-0.1-1.6L103.8,10z"
					/>
				<path class="st1" d="M126.2,8.6h-5.8c-1.4,0-2.6,0.3-3.7,0.9c-1.1,0.6-1.9,1.4-2.5,2.4c-0.6,1-0.9,2.2-0.9,3.4
					c0,1.2,0.3,2.2,0.8,3.1c0.6,0.9,1.3,1.6,2.3,2.1c0.1,0.1,0.2,0.1,0.4,0.2l-3,3.9c-0.3,0.4-0.5,0.8-0.5,1.3c0,0.5,0.2,1,0.7,1.4
					c0.4,0.3,0.9,0.5,1.6,0.6c0,0,0.1,0,0.1,0c0.7,0,1.3-0.3,1.7-0.9l4.3-5.3h2.5v4c0,0.6,0.2,1.1,0.6,1.6c0.4,0.4,0.9,0.6,1.5,0.6
					c0.6,0,1.2-0.2,1.6-0.6c0.4-0.4,0.6-0.9,0.6-1.5v-15c0-0.6-0.2-1.2-0.6-1.6C127.4,8.8,126.9,8.6,126.2,8.6z M120.4,12.7h3.7V18
					h-3.7c-0.8,0-1.5-0.2-2-0.8c-0.6-0.5-0.8-1.1-0.8-1.9c0-0.8,0.3-1.4,0.8-1.8C119,13,119.6,12.7,120.4,12.7z"/>
				<path class="st1" d="M152.7,10c-0.2-0.5-0.5-0.8-0.8-1c-0.3-0.2-0.7-0.3-1.2-0.3c-0.9,0-1.6,0.5-2,1.4l-6.9,15
					c-0.3,0.6-0.3,1.1-0.1,1.6c0.2,0.4,0.6,0.8,1.1,1c0.6,0.3,1.1,0.3,1.6,0.2c0.5-0.2,0.9-0.5,1.2-1.1l5.2-11.5l5.1,11.5
					c0.3,0.6,0.7,0.9,1.2,1.1c0.2,0.1,0.3,0.1,0.5,0.1c0.3,0,0.7-0.1,1.1-0.3c0.5-0.2,0.8-0.6,1-1c0.2-0.5,0.2-1-0.1-1.6L152.7,10z"
					/>
				<path class="st1" d="M184.9,9.7c-1.5-0.8-3.1-1.3-5-1.3c-1.9,0-3.6,0.4-5,1.3c-1.5,0.8-2.6,2-3.5,3.5c-0.5,0.8-0.8,1.7-1,2.7h-3
					v-5.1c0-0.6-0.2-1.2-0.6-1.6c-0.8-0.8-2.3-0.8-3.1,0c-0.4,0.4-0.6,0.9-0.6,1.6v15c0,0.6,0.2,1.2,0.6,1.6c0.9,0.8,2.4,0.8,3.2,0
					c0.4-0.4,0.6-0.9,0.6-1.6V20h2.9c0.2,1.2,0.6,2.3,1.1,3.3c0.8,1.5,2,2.6,3.5,3.5c1.5,0.8,3.2,1.3,5,1.3c1.9,0,3.6-0.4,5-1.3
					c1.5-0.8,2.6-2,3.4-3.5c0.8-1.5,1.2-3.2,1.2-5.1c0-1.9-0.4-3.6-1.3-5.1C187.5,11.7,186.4,10.5,184.9,9.7z M179.9,12.4
					c1.1,0,2,0.2,2.8,0.7c0.8,0.5,1.5,1.2,1.9,2c0.5,0.9,0.7,1.9,0.7,3c0,1.1-0.2,2.2-0.7,3c-0.5,0.9-1.1,1.5-1.9,2
					c-1.6,1-4.1,1-5.7,0c-0.8-0.5-1.5-1.2-1.9-2c-0.5-0.9-0.7-1.9-0.7-3c0-1.1,0.2-2.2,0.7-3c0.5-0.9,1.1-1.6,1.9-2.1
					C177.9,12.7,178.8,12.4,179.9,12.4z"/>
				<path class="st1" d="M211,23.3c0.8-1.5,1.3-3.2,1.3-5.1V11c0-1.8-0.4-3.5-1.2-5c-0.8-1.5-2-2.7-3.4-3.6
					c-1.5-0.9-3.2-1.3-5.1-1.3c-1.7,0-3.2,0.3-4.7,1c-1.5,0.7-2.7,1.6-3.7,2.9c-0.4,0.5-0.5,1-0.4,1.6c0.1,0.5,0.4,1,0.9,1.3
					c0.5,0.3,1.1,0.5,1.6,0.3c0.6-0.1,1-0.4,1.3-0.9c0.5-0.7,1.3-1.2,2.1-1.6c1.6-0.8,3.9-0.9,5.7,0.1c0.8,0.5,1.5,1.2,2,2.1
					c0.5,0.9,0.7,2.1,0.7,3.5v0.1c-0.5-0.6-1.1-1.2-1.8-1.6c-1.3-0.8-2.7-1.3-4.4-1.3c-1.8,0-3.3,0.4-4.7,1.3
					c-1.4,0.8-2.4,2-3.2,3.5c-0.8,1.5-1.2,3.2-1.2,5c0,1.9,0.4,3.6,1.3,5.1c0.8,1.5,2,2.6,3.5,3.5c1.5,0.8,3.2,1.3,5,1.3
					c1.9,0,3.5-0.4,5-1.3C209,25.9,210.2,24.8,211,23.3z M199.7,23.3c-0.8-0.5-1.5-1.2-1.9-2.1c-0.5-0.9-0.7-1.9-0.7-3
					c0-1.1,0.2-2.2,0.7-3c0.5-0.9,1.1-1.5,1.9-2c1.6-1,4.1-1,5.7,0c0.8,0.5,1.5,1.2,1.9,2c0.5,0.9,0.7,1.9,0.7,3
					c0,1.1-0.2,2.2-0.7,3c-0.5,0.9-1.1,1.6-1.9,2c-0.8,0.5-1.8,0.7-2.8,0.7C201.5,24,200.6,23.8,199.7,23.3z"/>
				<path class="st1" d="M229.8,9.7c-1.3-0.8-2.9-1.2-4.8-1.2c-1.8,0-3.5,0.4-4.9,1.3c-1.4,0.8-2.6,2-3.4,3.5
					c-0.8,1.5-1.2,3.2-1.2,5.1c0,1.9,0.4,3.6,1.3,5.1c0.9,1.5,2.1,2.6,3.6,3.5c1.5,0.8,3.3,1.3,5.2,1.3c1.1,0,2.2-0.2,3.4-0.6
					c1.2-0.4,2.2-0.9,3-1.6c0.6-0.5,0.7-1.1,0.7-1.4c0-0.5-0.3-1-0.8-1.4c-0.4-0.3-0.8-0.5-1.3-0.5c-0.5,0-0.9,0.2-1.4,0.5
					c-0.4,0.3-1,0.6-1.6,0.8c-1.9,0.7-3.7,0.4-5.1-0.4c-0.9-0.5-1.6-1.2-2.1-2.1c-0.2-0.4-0.4-0.8-0.5-1.4h12.1
					c0.6,0,1.1-0.2,1.4-0.6c0.4-0.4,0.6-0.8,0.6-1.4c0-1.8-0.4-3.5-1-4.9C232.2,11.6,231.1,10.5,229.8,9.7z M225,12.3
					c1,0,1.9,0.2,2.6,0.7c0.7,0.5,1.3,1.1,1.6,1.9c0.2,0.4,0.3,0.8,0.4,1.4h-10c0.1-0.4,0.2-0.8,0.4-1.1c0.4-0.9,1-1.6,1.9-2.1
					C222.8,12.5,223.9,12.3,225,12.3z"/>
				<path class="st1" d="M254.5,9.1c-0.8-0.8-2.3-0.8-3.1,0c-0.4,0.4-0.6,0.9-0.6,1.6v9.5c0,0.7-0.2,1.3-0.6,1.9
					c-0.4,0.6-0.9,1-1.6,1.4c-1.4,0.7-3.4,0.7-4.9,0c-0.7-0.3-1.3-0.9-1.7-1.6c-0.4-0.7-0.6-1.7-0.6-2.9v-8.3c0-0.6-0.2-1.1-0.6-1.6
					c-0.8-0.8-2.3-0.8-3.1,0c-0.4,0.4-0.6,0.9-0.6,1.6V19c0,1.9,0.4,3.6,1.1,4.9c0.7,1.4,1.8,2.4,3.1,3.1c1.3,0.7,2.8,1,4.4,1
					c1.6,0,3-0.3,4.2-1c0.4-0.2,0.7-0.4,1.1-0.7c0.1,0.4,0.3,0.7,0.6,0.9c0.8,0.8,2.4,0.8,3.2,0c0.4-0.4,0.6-0.9,0.6-1.6v-15
					C255.1,10.1,254.9,9.5,254.5,9.1z"/>
				<path class="st1" d="M242.9,6.5c1,0.4,2.1,0.6,3.3,0.6c1.2,0,2.3-0.2,3.3-0.6c1-0.4,1.8-1,2.4-1.8c0.6-0.8,0.9-1.6,0.9-2.6
					c0-0.6-0.2-1.1-0.5-1.5c-0.7-0.8-2.1-0.8-2.9,0c-0.4,0.4-0.6,0.9-0.6,1.5c0,0.4-0.2,0.7-0.7,1c-0.5,0.3-1.1,0.5-1.9,0.5
					c-0.8,0-1.4-0.2-1.9-0.5c-0.4-0.3-0.7-0.6-0.7-1c0-0.6-0.2-1.1-0.5-1.5c-0.7-0.8-2.1-0.9-2.9,0c-0.4,0.4-0.6,0.9-0.6,1.5
					c0,1,0.3,1.8,0.9,2.6C241.1,5.5,241.9,6.1,242.9,6.5z"/>
			</g>
		</g>
	</g>
	<g>
		<g>
			<path class="st0" d="M2.8,24.1c0-2.8,1.9-5.2,4.5-5.9c0.1,0.2,0.3,0.4,0.6,0.5l4,1.6c1.3,0.5,2.7-0.4,2.7-1.8v-0.9v-1.7v-0.9
				c0-1.4-1.4-2.4-2.7-1.8l-4,1.6c-0.2,0.1-0.4,0.2-0.5,0.4c0,0,0,0.1-0.1,0.1C3.2,16,0,19.7,0,24.1c0,5,4,9,9,9h7v-2.8H9
				C5.6,30.2,2.8,27.5,2.8,24.1z"/>
			<path class="st0" d="M24.1,0c-3.9,0-7.2,2.5-8.5,6c-0.2,0.1-0.4,0.4-0.6,0.6l-1.6,4c-0.5,1.3,0.4,2.7,1.8,2.7h0.9h1.7h0.9
				c1.4,0,2.4-1.4,1.8-2.7l-1.6-4c-0.1-0.2-0.2-0.3-0.3-0.5c1-2,3.1-3.3,5.4-3.3c3.4,0,6.1,2.8,6.1,6.1v8.7V18v9.1
				c0,1.7-1.4,3.1-3.1,3.1h-4.9v2.8h4.9c3.3,0,5.9-2.7,5.9-5.9V18v-0.4V9C33.1,4,29,0,24.1,0z"/>
		</g>
		<g>
			<path class="st1" d="M34.4,46.4c3.2-0.1,5.7-2.7,5.7-5.9c0-3.3-2.6-5.9-5.9-5.9c-3.3,0-5.9,2.6-5.9,5.9c0,2.2,1.2,4.2,3.1,5.2
				c0.8,0.5,1.8,0.7,2.8,0.7C34.3,46.4,34.3,46.4,34.4,46.4z M31.2,40.5c0-1.7,1.4-3,3-3c1.7,0,3,1.4,3,3c0,1.2-0.7,2.3-1.7,2.8
				c-0.4,0.2-0.8,0.3-1.3,0.3c-0.6,0-1.1-0.2-1.6-0.4C31.8,42.5,31.2,41.6,31.2,40.5z"/>
			<path class="st1" d="M34.3,42.2c0.9,0,1.7-0.8,1.7-1.7c0-1-0.8-1.7-1.7-1.7c-1,0-1.7,0.8-1.7,1.7c0,0.7,0.4,1.2,0.9,1.5
				C33.6,42.1,33.9,42.2,34.3,42.2C34.2,42.2,34.2,42.2,34.3,42.2z"/>
		</g>
		<g>
			<path class="st1" d="M30.5,46.6c-1,0.8-2.4,1.3-3.8,1.3c-3.4,0-6.1-2.8-6.1-6.1v-4.9v-7.5v-5.8c0-1.7,1.4-3.1,3.1-3.1h4.9v-2.8
				h-4.9c-3.3,0-5.9,2.7-5.9,5.9v6.6v2.8v8.7c0,5,4,9,9,9c2.7,0,5.2-1.2,6.8-3.1c-1-0.1-1.9-0.4-2.7-0.8
				C30.7,46.7,30.6,46.6,30.5,46.6z"/>
			<path class="st1" d="M41.8,17.7h-7v2.8h7c3.4,0,6.1,2.8,6.1,6.1c0,3.4-2.8,6.1-6.1,6.1h-1.3c-0.8,0-1.4,0.6-1.4,1.4
				c0,0.8,0.6,1.4,1.4,1.4h1.3c5,0,9-4,9-9S46.7,17.7,41.8,17.7z"/>
		</g>
	</g>
</g>
</svg>
