<svg xmlns="http://www.w3.org/2000/svg" xmlns:xlink="http://www.w3.org/1999/xlink" xmlns:inkscape="http://www.inkscape.org/namespaces/inkscape" version="1.1" width="761.486" height="1162.2" viewBox="0 0 761.486 1162.2">
<defs>
<clipPath id="clip_1">
<path transform="matrix(1,0,0,-1,0,1162.2)" d="M0 1162.205H761.486V0H0Z"/>
</clipPath>
</defs>
<g inkscape:groupmode="layer" inkscape:label="on door">
<g clip-path="url(#clip_1)">
<path transform="matrix(1,0,0,-1,546.1377,276.10469)" d="M0 0C-2.497-2.498-5.771-3.747-9.045-3.747-12.318-3.747-15.593-2.498-18.09 0L-48.688 30.596-60.804 42.714-140.778 122.688C-143.178 125.087-144.525 128.341-144.525 131.734-144.525 135.126-143.178 138.38-140.778 140.779L-98.065 183.493C-95.567 185.99-92.294 187.239-89.02 187.239-85.746 187.239-82.473 185.99-79.975 183.493L-9.045 112.563 57.917 179.525C.78 197.955-56.807 217.958-115.802 226.084-231.125 241.954-344.869 228.901-454.277 185.642-490.582 171.284-497.551 165.694-497.182 125.348-496.467 48.808-496.496-27.894-491.127-104.168-487.13-160.775-475.641-217.065-446.025-267.307-390.93-360.75-308.616-424.886-216.354-477.592-208.736-481.957-193.035-479.849-185.078-474.635-147.866-450.276-110.242-425.984-76.179-397.571-16.254-347.602 36.298-291.289 61.769-214.55 88.103-135.2 85.736-53.1 88.073 37.429 88.073 52.497 88.623 70.061 88.704 88.704Z" fill="#0075bd"/>
<path transform="matrix(1,0,0,-1,507.9229,413.88636)" d="M0 0H-110.241V-110.249H-221.803V0H-332.044V111.554H-221.803V221.803H-110.241V111.554H0Z" fill="#ffffff"/>
<path transform="matrix(1,0,0,-1,127.6685,1110.3146)" d="M0 0C0 2.634-1.032 4.702-3.094 6.207-5.154 7.717-7.883 8.473-11.278 8.473-14.324 8.473-16.853 7.717-18.867 6.207-20.881 4.702-21.888 2.744-21.888 .331H-36.162C-36.162 4.076-35.109 7.447-32.997 10.443-30.888 13.439-27.892 15.778-24.006 17.461-20.119 19.143-15.877 19.983-11.278 19.983-3.285 19.983 2.98 18.271 7.518 14.845 12.055 11.419 14.323 6.569 14.323 .288 14.323-2.794 13.393-5.648 11.539-8.276 9.682-10.91 7.042-13.022 3.616-14.606 7.422-15.938 10.342-17.965 12.371-20.672 14.4-23.386 15.416-26.757 15.416-30.784 15.416-37.003 12.982-41.945 8.113-45.604 3.242-49.27-3.22-51.1-11.278-51.1-16.319-51.1-20.856-50.24-24.884-48.509-28.914-46.783-31.969-44.42-34.044-41.418-36.122-38.422-37.163-34.94-37.163-30.975H-22.79C-22.79-33.448-21.712-35.518-19.555-37.188-17.399-38.852-14.64-39.68-11.278-39.68-7.472-39.68-4.467-38.827-2.259-37.113-.055-35.4 1.047-33.228 1.047-30.594 1.047-26.978 .064-24.387-1.903-22.814-3.871-21.243-6.741-20.457-10.517-20.457H-19.033V-9.277H-10.229C-3.411-9.185 0-6.091 0 0" fill="#0075bd"/>
<path transform="matrix(1,0,0,-1,279.646,1160.5119)" d="M0 0H-24.094V50.117H-71.08V0H-95.175V116.939H-71.08V69.555H-24.094V116.939H0Z" fill="#0075bd"/>
<path transform="matrix(1,0,0,-1,392.4873,1121.5626)" d="M0 0C-.911-12.58-5.556-22.482-13.934-29.715-22.314-36.941-33.359-40.558-47.065-40.558-62.058-40.558-73.849-35.511-82.444-25.418-91.037-15.324-95.334-1.474-95.334 16.147V23.294C-95.334 34.541-93.354 44.444-89.391 53.009-85.428 61.579-79.768 68.148-72.403 72.729-65.042 77.31-56.49 79.593-46.743 79.593-33.251 79.593-22.381 75.982-14.136 68.751-5.891 61.524-1.123 51.376 .163 38.311H-23.935C-24.524 45.862-26.624 51.339-30.237 54.74-33.853 58.136-39.354 59.836-46.743 59.836-54.773 59.836-60.787 56.957-64.775 51.204-68.762 45.445-70.81 36.519-70.917 24.417V15.582C-70.917 2.947-69.005-6.287-65.177-12.125-61.349-17.964-55.311-20.881-47.065-20.881-39.621-20.881-34.068-19.18-30.399-15.778-26.731-12.377-24.628-7.122-24.094 0Z" fill="#0075bd"/>
<path transform="matrix(1,0,0,-1,465.9775,1075.7804)" d="M0 0C0 4.445-1.74 7.938-5.222 10.48-8.703 13.022-13.308 14.3-19.035 14.3-24.177 14.3-28.447 13.022-31.846 10.48-35.247 7.938-36.947 4.63-36.947 .565H-61.042C-61.042 6.883-59.262 12.568-55.7 17.627-52.14 22.692-47.081 26.64-40.521 29.477-33.961 32.313-26.799 33.73-19.035 33.73-5.544 33.73 5.031 30.839 12.69 25.062 20.347 19.278 24.175 11.082 24.175 .485 24.175-4.715 22.609-9.528 19.475-13.973 16.344-18.418 11.887-21.979 6.103-24.656 12.528-26.903 17.455-30.316 20.881-34.896 24.307-39.477 26.022-45.162 26.022-51.965 26.022-62.457 21.912-70.801 13.694-76.983 5.474-83.166-5.437-86.26-19.035-86.26-27.548-86.26-35.207-84.799-42.007-81.883-48.806-78.966-53.96-74.976-57.466-69.917-60.975-64.857-62.728-58.976-62.728-52.284H-38.473C-38.473-56.459-36.653-59.958-33.012-62.764-29.371-65.576-24.712-66.981-19.035-66.981-12.61-66.981-7.539-65.539-3.815-62.647-.095-59.756 1.766-56.091 1.766-51.646 1.766-45.536 .104-41.159-3.214-38.513-6.535-35.86-11.38-34.534-17.749-34.534H-32.128V-15.661H-17.268C-5.759-15.502 0-10.277 0 0" fill="#0075bd"/>
<path transform="matrix(1,0,0,-1,552.5605,1098.8283)" d="M0 0 21.282 55.256H47.305L6.425-41.202 3.131-47.55C-2.92-58.098-12.184-63.372-24.659-63.372L-33.092-63.053-33.332-43.694C-32.049-43.909-29.958-44.014-27.069-44.014-23.695-44.014-20.979-43.425-18.916-42.245-16.856-41.073-15.128-38.905-13.734-35.744L-10.763-28.112-51.806 55.256H-25.863Z" fill="#0075bd"/>
<path transform="matrix(1,0,0,-1,36.4624,978.41329)" d="M0 0H44.576V78.07H14.941L12.933 47.312C11.325 26.694 7.015 10.929 0 0M80.397-48.109H58.151V-19.352H-12.368V-48.023H-35.176L-36.462 0H-27.628C-22.863 3.966-19.183 9.786-16.583 17.473-13.989 25.153-12.236 34.67-11.324 46.021L-7.951 97.588H68.671V0H82.325Z" fill="#b5d333"/>
<path transform="matrix(1,0,0,-1,201.1094,936.6456)" d="M0 0C0 12.26-2.195 21.574-6.584 27.946-10.978 34.319-17.24 37.506-25.381 37.506-33.463 37.506-39.705 34.362-44.094 28.069-48.484 21.776-50.707 12.555-50.759 .398V-5.299C-50.759-17.24-48.563-26.505-44.174-33.093-39.784-39.674-33.463-42.971-25.218-42.971-17.135-42.971-10.922-39.797-6.584-33.455-2.247-27.106-.052-17.86 0-5.704ZM24.417-5.299C24.417-16.816 22.382-26.904 18.311-35.579 14.244-44.254 8.42-50.946 .844-55.661-6.735-60.37-15.419-62.728-25.218-62.728-34.909-62.728-43.557-60.401-51.161-55.741-58.765-51.081-64.655-44.426-68.83-35.781-73.008-27.138-75.123-17.191-75.175-5.943V-.16C-75.175 11.352-73.1 21.481-68.95 30.236-64.803 38.991-58.939 45.715-51.36 50.398-43.784 55.083-35.125 57.423-25.381 57.423-15.634 57.423-6.975 55.083 .602 50.398 8.178 45.715 14.041 38.991 18.191 30.236 22.342 21.481 24.417 11.376 24.417-.08Z" fill="#b5d333"/>
<path transform="matrix(1,0,0,-1,319.7373,900.3429)" d="M0 0H-52.444V-97.422H-76.539V19.518H0Z" fill="#b5d333"/>
<path transform="matrix(1,0,0,-1,400.9355,936.6456)" d="M0 0C0 12.26-2.195 21.574-6.585 27.946-10.978 34.319-17.24 37.506-25.381 37.506-33.463 37.506-39.704 34.362-44.094 28.069-48.484 21.776-50.707 12.555-50.759 .398V-5.299C-50.759-17.24-48.563-26.505-44.174-33.093-39.784-39.674-33.463-42.971-25.218-42.971-17.136-42.971-10.922-39.797-6.585-33.455-2.247-27.106-.052-17.86 0-5.704ZM24.417-5.299C24.417-16.816 22.382-26.904 18.312-35.579 14.244-44.254 8.42-50.946 .845-55.661-6.735-60.37-15.42-62.728-25.218-62.728-34.909-62.728-43.557-60.401-51.161-55.741-58.765-51.081-64.655-44.426-68.83-35.781-73.008-27.138-75.123-17.191-75.175-5.943V-.16C-75.175 11.352-73.1 21.481-68.95 30.236-64.803 38.991-58.939 45.715-51.36 50.398-43.784 55.083-35.124 57.423-25.381 57.423-15.634 57.423-6.975 55.083 .602 50.398 8.178 45.715 14.041 38.991 18.191 30.236 22.342 21.481 24.417 11.376 24.417-.08Z" fill="#b5d333"/>
<path transform="matrix(1,0,0,-1,466.957,946.8439)" d="M0 0V-31.569H20.641C26.317-31.569 30.747-30.213 33.933-27.511 37.119-24.81 38.713-21.071 38.713-16.307 38.713-5.6 33.172-.166 22.087 0ZM0 17.025H17.832C29.985 17.24 36.063 22.084 36.063 31.563 36.063 36.861 34.522 40.681 31.443 43.008 28.364 45.334 23.505 46.501 16.868 46.501H0ZM-24.095-50.921V66.019H16.868C31.057 66.019 41.819 63.299 49.153 57.865 56.489 52.432 60.158 44.463 60.158 33.97 60.158 28.242 58.685 23.195 55.74 18.83 52.794 14.465 48.698 11.266 43.452 9.233 49.447 7.735 54.175 4.709 57.629 .159 61.082-4.396 62.808-9.965 62.808-16.546 62.808-27.794 59.219-36.303 52.045-42.087 44.871-47.87 34.643-50.816 21.365-50.921Z" fill="#b5d333"/>
<path transform="matrix(1,0,0,-1,0,1162.2)" d="M573.453 164.435H549.35806V281.374H573.453Z" fill="#b5d333"/>
<path transform="matrix(1,0,0,-1,619.877,937.04507)" d="M0 0H21.525C27.898 0 32.758 1.498 36.104 4.494 39.45 7.49 41.123 11.775 41.123 17.344 41.123 23.072 39.438 27.708 36.063 31.238 32.69 34.774 28.03 36.592 22.087 36.702H0ZM0-19.518V-60.72H-24.095V56.22H21.525C30.308 56.22 38.031 54.611 44.696 51.4 51.363 48.189 56.49 43.621 60.078 37.703 63.664 31.79 65.46 25.056 65.46 17.504 65.46 6.047 61.537-2.99 53.693-9.603 45.847-16.215 34.992-19.518 21.123-19.518Z" fill="#b5d333"/>
<path transform="matrix(1,0,0,-1,718.7725,-.004760742)" d="M0 0-181.637-181.637-261.611-101.662-304.325-144.375-224.351-224.351-212.233-236.468-181.637-267.064 42.714-42.714Z" fill="#b5d333"/>
</g>
</g>
</svg>
